<svg id="vector_3" xmlns="http://www.w3.org/2000/svg" xmlns:xlink="http://www.w3.org/1999/xlink" width="644" height="573.164" viewBox="0 0 644 573.164">
  <defs>
    <filter id="Path_250" x="291.478" y="126.738" width="190.817" height="224.612" filterUnits="userSpaceOnUse">
      <feOffset dy="2" input="SourceAlpha"/>
      <feGaussianBlur stdDeviation="10" result="blur"/>
      <feFlood flood-opacity="0.078"/>
      <feComposite operator="in" in2="blur"/>
      <feComposite in="SourceGraphic"/>
    </filter>
    <linearGradient id="linear-gradient" x1="0.473" y1="-0.282" x2="0.5" y2="0.911" gradientUnits="objectBoundingBox">
      <stop offset="0" stop-color="#fdc6c6"/>
      <stop offset="1" stop-color="#ffcca1"/>
    </linearGradient>
    <linearGradient id="linear-gradient-2" x1="0.458" y1="-0.282" x2="0.5" y2="0.911" gradientUnits="objectBoundingBox">
      <stop offset="0" stop-color="#fdc6c6"/>
      <stop offset="1" stop-color="#fab2b2"/>
    </linearGradient>
    <linearGradient id="linear-gradient-3" x1="0.446" y1="-0.282" y2="0.911" xlink:href="#linear-gradient-2"/>
    <linearGradient id="linear-gradient-4" x1="0.441" y1="-0.282" y2="0.911" xlink:href="#linear-gradient"/>
    <linearGradient id="linear-gradient-5" x1="0.478" y1="-0.282" y2="0.911" xlink:href="#linear-gradient"/>
  </defs>
  <g id="Forgot-Password" transform="translate(-156 -252)">
    <g id="Illustration" transform="translate(156 252)">
      <g id="Shape">
        <path id="Oval" d="M469.4,0C565.83,0,644,77.871,644,173.93S565.83,347.859,469.4,347.859,294.8,269.988,294.8,173.93,372.974,0,469.4,0Zm0,65.02c-60.38,0-109.328,48.761-109.328,108.91S409.022,282.839,469.4,282.839,578.73,234.078,578.73,173.93,529.782,65.02,469.4,65.02Z" fill="#f3f3f3"/>
        <path id="Oval-2" data-name="Oval" d="M49.5,226.488A49.307,49.307,0,1,1,0,275.8,49.4,49.4,0,0,1,49.5,226.488Zm0,32.51a16.8,16.8,0,1,0,16.861,16.8A16.829,16.829,0,0,0,49.5,259Z" fill="#f3f3f3"/>
        <ellipse id="Oval-3" data-name="Oval" cx="97.905" cy="97.531" rx="97.905" ry="97.531" transform="translate(104.433 335.938)" fill="#f3f3f3"/>
        <ellipse id="Oval-4" data-name="Oval" cx="34.811" cy="34.678" rx="34.811" ry="34.678" transform="translate(134.892 57.435)" fill="#cef5ff" opacity="0.141"/>
        <ellipse id="Oval-5" data-name="Oval" cx="34.811" cy="34.678" rx="34.811" ry="34.678" transform="translate(545.007 398.791)" fill="#f3f3f3"/>
      </g>
      <g id="File-Organizer" transform="translate(136 119)">
        <g id="Phone3" transform="translate(66.539)">
          <path id="Rectangle" d="M25.137,0H194.942a25.137,25.137,0,0,1,25.137,25.137v403.2a25.137,25.137,0,0,1-25.137,25.137H25.137A25.137,25.137,0,0,1,0,428.336V25.137A25.137,25.137,0,0,1,25.137,0Z" fill="#1d2c5b" fill-rule="evenodd"/>
          <g id="Group-48" transform="translate(7.937 9.138)">
            <path id="Rectangle-2" data-name="Rectangle" d="M18.522,0H47.957a3,3,0,0,1,3,2.913l.089,3.044a6.135,6.135,0,0,0,6.132,5.956h89.131a6.135,6.135,0,0,0,6.132-5.956l.089-3.044a3,3,0,0,1,3-2.913h29.435a18.522,18.522,0,0,1,18.522,18.522V413.967a18.522,18.522,0,0,1-18.522,18.522H18.522A18.522,18.522,0,0,1,0,413.967V18.522A18.522,18.522,0,0,1,18.522,0Z" fill="#fff"/>
            <ellipse id="Oval-6" data-name="Oval" cx="17.453" cy="17.328" rx="17.453" ry="17.328" transform="translate(59.693 245.901)" fill="#f3f3f3"/>
            <path id="Oval-7" data-name="Oval" d="M181.591,245.9c46.539,0,84.265,37.456,84.265,83.66s-37.726,83.659-84.265,83.659-84.265-37.455-84.265-83.659S135.053,245.9,181.591,245.9Zm0,36.55a47.111,47.111,0,1,0,47.45,47.11A47.281,47.281,0,0,0,181.591,282.452Z" fill="#c8f5d0" fill-rule="evenodd" opacity="0.141"/>
          </g>
          <path id="Path" d="M121.969,7.939a3.332,3.332,0,0,1,3.409,3.249,3.325,3.325,0,0,1-3.284,3.247l-.125,0H83.424a3.332,3.332,0,0,1-3.409-3.249A3.325,3.325,0,0,1,83.3,7.941l.125,0Z" fill="#feffff"/>
          <path id="Path-2" data-name="Path" d="M135.783,7.4a3.384,3.384,0,0,1,.125,6.766l-.125,0H135.6a3.384,3.384,0,0,1-.125-6.766l.125,0Z" fill="#f7fef9"/>
        </g>
        <g id="Group-37" transform="translate(80.72 152.699)">
          <path id="Rectangle-3" data-name="Rectangle" d="M4,.764h7.594a4,4,0,0,1,4,4v3.5a1.219,1.219,0,0,0,1.219,1.219h50.01a4,4,0,0,1,4,4v42.7a4,4,0,0,1-4,4H4a4,4,0,0,1-4-4V4.764A4,4,0,0,1,4,.764Z" fill="#4f5b7f" fill-rule="evenodd"/>
          <path id="Rectangle-4" data-name="Rectangle" d="M18.019,4.891H72.341a1.219,1.219,0,0,1,1.2,1.413L65.385,57.1a1.219,1.219,0,0,1-1.2,1.026H9.859a1.219,1.219,0,0,1-1.2-1.413l8.16-50.792A1.219,1.219,0,0,1,18.019,4.891Z" fill="#f2f2f2" fill-rule="evenodd"/>
          <path id="Rectangle-5" data-name="Rectangle" d="M79.292,23.177,73.179,54.392a8,8,0,0,1-7.851,6.463H4.859A4,4,0,0,1,.934,56.086L7.047,24.871A8,8,0,0,1,14.9,18.409H75.367a4,4,0,0,1,3.925,4.769Z" fill="#828aa4" fill-rule="evenodd"/>
        </g>
        <g id="Group-28" transform="translate(0 97.468)">
          <path id="Rectangle-6" data-name="Rectangle" d="M6,0H39.667L52.359,13V55.729a6,6,0,0,1-6,6H6a6,6,0,0,1-6-6V6A6,6,0,0,1,6,0Z" fill="#1d2c5b" fill-rule="evenodd"/>
          <g id="Icon" transform="translate(10.656 19.729)">
            <path id="Mask" d="M23.444,4.262V21.308a3.14,3.14,0,0,1-3.2,3.2H14.919a1.065,1.065,0,1,1,0-2.131h5.328a1.007,1.007,0,0,0,1.066-1.065V4.262A1.007,1.007,0,0,0,20.247,3.2H14.919a1.007,1.007,0,0,1-1.066-1.065,1.007,1.007,0,0,1,1.066-1.065h5.328A3.14,3.14,0,0,1,23.444,4.262Zm-6.5,8.95a1.166,1.166,0,0,0,0-.852c-.107-.107-.107-.213-.213-.32L12.468,7.778a1.055,1.055,0,0,0-1.492,1.492l2.451,2.45H3.2a1.065,1.065,0,1,0,0,2.131h10.23L10.976,16.3a1.03,1.03,0,0,0,0,1.492,1.03,1.03,0,0,0,1.492,0l4.262-4.262C16.837,13.424,16.943,13.318,16.943,13.211Z"/>
            <g id="Group">
              <g id="Icon-Color">
                <rect id="_-Icon-Color" data-name="🎨-Icon-Color" width="25.575" height="25.57" rx="6" fill="#fff"/>
              </g>
            </g>
          </g>
          <path id="Path-3" data-name="Path" d="M52.359,13H42.667a3,3,0,0,1-3-3V0h0Z" fill="#7367f0" opacity="0.34"/>
        </g>
        <g id="Group-2" data-name="Group" transform="translate(22.907 257.747)">
          <path id="Rectangle-7" data-name="Rectangle" d="M6,0H68.175a6,6,0,0,1,6,6V55.729a6,6,0,0,1-6,6H6a6,6,0,0,1-6-6V6A6,6,0,0,1,6,0Z" fill="#1d2c5b" fill-rule="evenodd" opacity="0.5"/>
          <g id="Icon-2" data-name="Icon" transform="translate(21.312 15.981)">
            <path id="Mask-2" data-name="Mask" d="M23.621,12.43H22.378V8.7a7.459,7.459,0,0,0-14.919,0V12.43H6.216a3.663,3.663,0,0,0-3.73,3.729v8.7a3.663,3.663,0,0,0,3.73,3.729H23.621a3.663,3.663,0,0,0,3.73-3.729v-8.7A3.663,3.663,0,0,0,23.621,12.43ZM9.946,8.7a4.973,4.973,0,0,1,9.946,0V12.43H9.946ZM24.864,24.86A1.174,1.174,0,0,1,23.621,26.1H6.216A1.174,1.174,0,0,1,4.973,24.86v-8.7a1.174,1.174,0,0,1,1.243-1.243H23.621a1.174,1.174,0,0,1,1.243,1.243Z" fill="#1d2c5b"/>
            <g id="Group-3" data-name="Group">
              <g id="Icon-Color-2" data-name="Icon-Color">
                <rect id="_-Icon-Color-2" data-name="🎨-Icon-Color" width="29.837" height="29.832" rx="6" fill="#1d2c5b"/>
              </g>
            </g>
          </g>
        </g>
        <g id="Group-34" transform="translate(87.265 60.646)" opacity="0.7">
          <path id="Rectangle-8" data-name="Rectangle" d="M6,0H68.175a6,6,0,0,1,6,6V55.729a6,6,0,0,1-6,6H6a6,6,0,0,1-6-6V6A6,6,0,0,1,6,0Z" fill="#4e5a7e"/>
          <ellipse id="Oval-8" data-name="Oval" cx="9.817" cy="9.747" rx="9.817" ry="9.747" transform="translate(22.907 12.996)" fill="#fff"/>
        </g>
        <g id="Group-23" transform="translate(185.438 35.738)">
          <g id="Rectangle-9" data-name="Rectangle">
            <g transform="matrix(1, 0, 0, 1, -321.44, -154.74)" filter="url(#Path_250)">
              <path id="Path_250-2" data-name="Path 250" d="M10.04,0H120.283a10,10,0,0,1,10,9.96l.575,144.612a10,10,0,0,1-9.96,10.04H10.615a10,10,0,0,1-10-9.96L.04,10.04A10,10,0,0,1,10,0Z" transform="translate(321.44 154.74)" fill="#fff"/>
            </g>
          </g>
          <path id="Rectangle-10" data-name="Rectangle" d="M44.7,101.8H86.2a3.249,3.249,0,0,1,0,6.5H44.7a3.249,3.249,0,0,1,0-6.5Z" fill="#1d2c5b"/>
          <path id="Rectangle-11" data-name="Rectangle" d="M33.792,119.127H97.106a3.249,3.249,0,1,1,0,6.5H33.792a3.249,3.249,0,0,1,0-6.5Z" fill="#1d2c5b"/>
          <g id="Icon8" transform="translate(40.36 37.074)">
            <g id="Oval-9" data-name="Oval" transform="translate(0.202 -0.23)">
              <ellipse id="Ellipse_94" data-name="Ellipse 94" cx="25.17" cy="25.545" rx="25.17" ry="25.545" transform="translate(-1 -14)" fill="#fff" stroke="#1c3568" stroke-width="1"/>
            </g>
            <g id="Group-70" transform="translate(14.202 -1.23)">
              <path id="Combined-Shape" d="M15.42,14.595a5.327,5.327,0,0,1,5.327,5.327v4.015a1.312,1.312,0,0,1-1.312,1.312H1.312A1.312,1.312,0,0,1,0,23.938V19.922a5.327,5.327,0,0,1,5.327-5.327ZM10.374,0A6.393,6.393,0,1,1,3.935,6.393,6.416,6.416,0,0,1,10.374,0Z" fill="#1c2e5d" fill-rule="evenodd"/>
            </g>
          </g>
        </g>
        <g id="Wom3.5" transform="translate(250.887 75.808)">
          <g id="RArm" transform="translate(108.67 62.12)">
            <path id="Path-4" data-name="Path" d="M16.18,83.5S4.6,96.075,5.4,97.208s6.809-1.9,6.809-1.9S5.18,108.257,6.8,109.143s9.585-1.472,11.926-4.187,5.5-15.979,5.5-15.979l16.8-35.38L27.367,49.653Z" transform="matrix(0.999, 0.05, -0.05, 0.999, 4.004, -1.061)" fill-rule="evenodd" fill="url(#linear-gradient)"/>
            <path id="Path-5" data-name="Path" d="M3.532,19.378C8.654,27.28,25.9,49.8,25.9,49.8l-1.257,4.493L40.488,65.08Q44.99,52.733,45.381,51c1.288-5.73-24.746-42.3-30.575-47.581C5.627-4.905-4.3,7.3,3.532,19.378Z" fill="#fe4101" fill-rule="evenodd"/>
            <path id="Path-6" data-name="Path" d="M30.02,55.78q.3-.572-4.1-6.059l-.744,2.668Q29.724,56.352,30.02,55.78Z" fill="rgba(0,0,0,0.16)" fill-rule="evenodd"/>
            <path id="Path-70" d="M24.543,52.787,41.379,65.551l-3.752,8.255L22.907,57.55Z" fill="#fe4101" fill-rule="evenodd"/>
          </g>
          <g id="RLeg" transform="translate(80.353 132.676)">
            <path id="Path-7" data-name="Path" d="M42.233,214.54,41.3,230.358l11.987.31L51.032,214.54Z" fill-rule="evenodd" fill="url(#linear-gradient-2)"/>
            <path id="Path-8" data-name="Path" d="M42.526-220.771s.336-9.526-1.651-12.852a16.629,16.629,0,0,1-2.694-7.893,30.824,30.824,0,0,1,.108-4.064H58.131s.5,10.022-.817,11.912-2.176,1.923-2.176,3.592-.294,9.242-.294,9.242Z" transform="translate(96.379) rotate(180)" fill="#391b0b" fill-rule="evenodd"/>
            <path id="Path-9" data-name="Path" d="M0,3.356,31.1,0l.457.422C33.77,2.518,43.4,12.255,46.169,25.563c5.225,25.125-1.768,71.53-1.613,81.706s4.991,16.315,7,30.7,2.2,78.687,2.2,78.687c-5.336,3.14-10.032,3.365-16.394-.188Z" fill="#4e3319" fill-rule="evenodd"/>
            <path id="Path-10" data-name="Path" d="M27.777,161.771,0,3.356,17.29,1.49C18.06,56.523,28.812,130.913,27.777,161.771Z" fill="rgba(255,255,255,0.19)" fill-rule="evenodd"/>
          </g>
          <g id="LLeg" transform="translate(53.824 137.036)">
            <path id="Path-11" data-name="Path" d="M32.9,208.517l-10.223.165q.672,10.534-3.258,14.1l-.215.186c-4.746,3.949,13.562,2.524,13.562,2.524Z" fill-rule="evenodd" fill="url(#linear-gradient-3)"/>
            <path id="Path-12" data-name="Path" d="M.716-216.729l.294-24.483,7.279,0,.063,6.032s2.3-5.624,5.8-5.949,19.2-.126,19.2-.126,1.3,5.648-6.5,8.213c-6.493,2.131-13.672,16.318-13.672,16.318Z" transform="translate(34.157) rotate(180)" fill="#391b0b" fill-rule="evenodd"/>
            <path id="Path-13" data-name="Path" d="M11.1,1.175,46.022,0l.261.48c1.694,3.191,10.978,21.871,8.112,43.1-4.024,29.8-14.253,64.743-14.754,70.081-.893,9.516.893,16.407,1.625,26.236s-2.792,71.646-2.792,71.646c-5.182,3.094-11.347,3.7-19.187.094q-7.077-83.967-7.129-97.256C12.106,101.1,11.1,1.175,11.1,1.175Z" fill="#604021" fill-rule="evenodd"/>
            <path id="Path-14" data-name="Path" d="M18.289,33.411l-.232,2.208C15.73,58.9,15.748,108.354,16.649,115.98l.124.983q1.5,12.909.1,65.543l-1.217-15.142q-3.458-43.7-3.495-52.979l-.042-6.4C11.915,82.112,11.1,1.175,11.1,1.175L18.468.927A203.767,203.767,0,0,1,18.289,33.411Z" fill="rgba(255,255,255,0.19)" fill-rule="evenodd"/>
          </g>
          <g id="Head" transform="translate(75.123 3.648)">
            <path id="Path-15" data-name="Path" d="M3.12,24.2c-4.3.467-3.992,7.966,1.238,8.357,1.069,7.229,4.881,10.674,9.529,11.072L13.63,54.562l20.559-.012a31.8,31.8,0,0,1-5.5-18.3c.288-10.576-.194-20.51-.194-20.51l-26.629.474Z" fill-rule="evenodd" fill="url(#linear-gradient-4)"/>
            <path id="Path-16" data-name="Path" d="M34.653-24.759c-5,1.965-8.7-6.494-12.53-12.374s-13.749-4.88-15.116,0C1.831-26.444-2.63-11.911,3.41-10.719,4.261,4.73,44.989,1.083,34.653-24.759Z" transform="translate(36.838) rotate(180)" fill="#8b5030" fill-rule="evenodd"/>
            <path id="Combined-Shape-2" data-name="Combined-Shape" d="M30.436,4.871a8.05,8.05,0,0,1,2.992,5.848c6.041,1.193,1.58,15.725-3.6,26.414-1.271,4.538-9.939,5.72-14.226,1.136-3.911-11.63-2.24-24.634,5.666-33.4h0Z" fill="rgba(0,0,0,0.2)" fill-rule="evenodd"/>
            <ellipse id="Oval-10" data-name="Oval" cx="4.909" cy="4.873" rx="4.909" ry="4.873" transform="translate(19.778 0)" fill="#fb9934"/>
          </g>
          <g id="Body" transform="translate(60.157 54.739)">
            <path id="Path-17" data-name="Path" d="M53.256-5.589c4.587-6.69,12.231-29.394,12.665-34.5.489-5.892-5.873-15.277-5.978-23.807s4.745-34.215,3.292-36.614-42.8-13.022-45.494-12.965S-1.909-98.96.219-93.964,12.292-76.552,11.28-69.745,4.471-37.813,1.587-29.262-.328-11.733,5.034-8.053a36.494,36.494,0,0,0,22.34,6.97C39.98-1.107,52.9-5.07,53.256-5.589Z" transform="translate(65.948) rotate(180)" fill="#fe4101" fill-rule="evenodd"/>
            <path id="Path-68" d="M26.927.594Q26.4,3.471,28.719,3.471c2.323,0,17.9.509,20.011-.4q2.11-.91,1.477-2.476Z" fill="#fe4101" fill-rule="evenodd"/>
            <path id="Path-18" data-name="Path" d="M6.034,20.057l.141-.071q12.742-6.315,15.307-.558,3.316,7.442-17.2,35.764C2.4,49.467-.3,44.007.027,40.091.278,37.135,2.944,28.285,6.034,20.057Z" fill="#e83e04" fill-rule="evenodd"/>
          </g>
          <g id="LArm" transform="translate(0 28.556)">
            <path id="Path-19" data-name="Path" d="M9.526,32.294S8,29,5.591,28.1-.493,21.3.076,19.585,5.62,13.109,5.62,13.109,1.221,1.389,3.17.066C4.891-1.1,11.4,13.659,11.4,13.659s3.829.573,4.713,2.082c2.227,3.8.544,12.362.544,12.362L39.269,60.9,28.9,74.108Z" fill-rule="evenodd" fill="url(#linear-gradient-5)"/>
            <path id="Path-20" data-name="Path" d="M67.238,34.838C59.592,41.581,40.89,59.472,40.89,59.472l-2.779-4.227L24.125,69.464Q34.676,85,38.111,85.109c8.952.283,24.991-16.5,40.07-29.6C91.7,43.762,81.49,22.267,67.238,34.838Z" fill="#fe4101" fill-rule="evenodd"/>
            <path id="Path-21" data-name="Path" d="M40.946,59.493Q35.7,65.517,35.267,64.86t3.957-7.98Z" fill="rgba(0,0,0,0.16)" fill-rule="evenodd"/>
            <path id="Path-69" d="M39.786,56.2,23.565,74.108l-5-10.218L36.7,52.593Z" fill="#fe4101" fill-rule="evenodd"/>
          </g>
          <path id="Path-22" data-name="Path" d="M114.094-4.642S109.5,1.3,104.2-.261,94.1-11.372,96.373-20.351s.4-14.1-2.352-20.155c-7.386-16.281,18.187-26.618,18.187-26.618q-2,12.064,1.886,19.349c4,7.5,6.267,17.123,6.267,23.01C120.361-14.528,114.094-4.642,114.094-4.642Z" transform="translate(213.043) rotate(180)" fill="#8b5030" fill-rule="evenodd"/>
        </g>
      </g>
    </g>
  </g>
</svg>
