<svg id="Component_34_1" data-name="Component 34 – 1" xmlns="http://www.w3.org/2000/svg" xmlns:xlink="http://www.w3.org/1999/xlink" width="705.451" height="401.172" viewBox="0 0 705.451 401.172">
  <defs>
    <clipPath id="clip-path">
      <rect id="Rectangle_314" data-name="Rectangle 314" width="50.375" height="14.188" fill="#4c587d"/>
    </clipPath>
    <clipPath id="clip-path-2">
      <rect id="Rectangle_315" data-name="Rectangle 315" width="28.492" height="45.662" fill="none"/>
    </clipPath>
    <clipPath id="clip-path-3">
      <rect id="Rectangle_316" data-name="Rectangle 316" width="22.258" height="50.83" fill="none"/>
    </clipPath>
    <clipPath id="clip-path-4">
      <rect id="Rectangle_317" data-name="Rectangle 317" width="41.988" height="66.689" fill="none"/>
    </clipPath>
    <clipPath id="clip-path-5">
      <rect id="Rectangle_318" data-name="Rectangle 318" width="36.991" height="64.891" fill="none"/>
    </clipPath>
    <clipPath id="clip-path-6">
      <rect id="Rectangle_319" data-name="Rectangle 319" width="10.027" height="9.329" fill="none"/>
    </clipPath>
    <filter id="Rectangle_322" x="58.101" y="17.725" width="566" height="377" filterUnits="userSpaceOnUse">
      <feOffset dy="2" input="SourceAlpha"/>
      <feGaussianBlur stdDeviation="11" result="blur"/>
      <feFlood flood-opacity="0.078"/>
      <feComposite operator="in" in2="blur"/>
      <feComposite in="SourceGraphic"/>
    </filter>
  </defs>
  <path id="Path_124" data-name="Path 124" d="M176.053,186.176c.008-.516-.011-1.024-.03-1.532-.008-.177,0-.35-.011-.523a30.678,30.678,0,1,0-40.475,30.722v0a30.682,30.682,0,0,0,40.388-26.228q.113-1.214.128-2.443m-53.675-.692A23,23,0,0,1,167,177.925l.008.011a22.959,22.959,0,0,1,1.34,6.595h0c.03.512.041,1.028.034,1.543a22.961,22.961,0,0,1-28.227,22.095c-.73-.169-1.453-.361-2.153-.6a23.012,23.012,0,0,1-15.621-22.087" transform="translate(220.613 162.945)" fill="#1d2c5b"/>
  <g id="Rectangle_323" data-name="Rectangle 323" transform="translate(61.101 78.725)" fill="none" stroke="#1d2c5b" stroke-width="1">
    <rect width="500" height="311" rx="20" stroke="none"/>
    <rect x="0.5" y="0.5" width="499" height="310" rx="19.5" fill="none"/>
  </g>
  <g id="Group_751" data-name="Group 751" transform="translate(590.99 49.725)">
    <g id="Group_752" data-name="Group 752" transform="translate(0.001 0)">
      <g id="Group_749" data-name="Group 749">
        <g id="Group_753" data-name="Group 753">
          <path id="Path_229" data-name="Path 229" d="M14.454,177.687s-13.489,0-13.489,5.488-2.17,38.417,0,38.417,6.287-4.8,8-12.348S16.856,190.36,21.314,187.8s-6.86-10.11-6.86-10.11" transform="translate(-0.001 72.716)" fill="#2f2c33"/>
          <path id="Path_230" data-name="Path 230" d="M36.845,231.237s-1.671,12.825,6.461,15c8.912,2.386,12.91,4.262,14.643,6.384a2.638,2.638,0,0,1-1.963,4.3c-9.053.3-35.493.913-37.3-1.628-4.618-6.518,1.251-15.12-.228-22.549-.892-4.477,18.382-1.509,18.382-1.509" transform="translate(6.909 94.236)" fill="#2f2c33"/>
          <path id="Path_231" data-name="Path 231" d="M21.115,116.269,8.309,119.8s1.373,24.827,12.806,71.017c0,0-5.488,32.93-4.116,49.394s4.116,44.223,4.116,44.223h21.5L55.654,171.607,44.9,125.873Z" transform="translate(3.4 47.581)" fill="#2f4563"/>
          <path id="Path_233" data-name="Path 233" d="M26.854,106.3,4.9,113.532s1.684,20.045,39.788,41.162c40.475,22.431,67.229,25.385,50.765-1.373s-50.765-49.7-50.765-49.7Z" transform="translate(2.005 42.407)" fill="#354c70"/>
          <path id="Path_234" data-name="Path 234" d="M77.619,142.3s-20.238.816-36.016,13.166S4.9,193.541,4.9,193.541l12.69,13.72s67.58-31.151,81.982-53.992Z" transform="translate(2.005 58.233)" fill="#354c70"/>
          <g id="Group_732" data-name="Group 732" transform="translate(34.966 189.903)" opacity="0.73" style="mix-blend-mode: multiply;isolation: isolate">
            <g id="Group_731" data-name="Group 731">
              <g id="Group_730" data-name="Group 730" clip-path="url(#clip-path)">
                <path id="Path_235" data-name="Path 235" d="M24.813,134.756s19.618,10.265,28.879,9.256,15.664-.362,21.5,1.373A67.549,67.549,0,0,0,50,148.944s-24.226-12.6-25.187-14.188" transform="translate(-24.813 -134.756)" fill="#4c587d"/>
              </g>
            </g>
          </g>
          <path id="Path_236" data-name="Path 236" d="M29.383,34.666,22.545,20.03S18.338,41.707,10.978,49.562c0,0,7.265,13.2,22.074,16.13,0,0-1.313-14.694,4.894-22.1s-8.564-8.922-8.564-8.922" transform="translate(4.492 8.197)" fill="#eac3b2"/>
          <g id="Group_735" data-name="Group 735" transform="translate(15.47 28.226)" opacity="0.43" style="mix-blend-mode: multiply;isolation: isolate">
            <g id="Group_734" data-name="Group 734">
              <g id="Group_733" data-name="Group 733" clip-path="url(#clip-path-2)">
                <path id="Path_237" data-name="Path 237" d="M29.383,34.666,22.545,20.03S18.338,41.707,10.978,49.562c0,0,7.265,13.2,22.074,16.13,0,0-1.313-14.694,4.894-22.1s-8.564-8.922-8.564-8.922" transform="translate(-10.978 -20.029)" fill="#eac3b2"/>
              </g>
            </g>
          </g>
          <path id="Path_238" data-name="Path 238" d="M57.1,33.4c0,14.036-8.585,25.414-19.177,25.414S18.743,47.432,18.743,33.4,27.328,7.982,37.918,7.982,57.1,19.36,57.1,33.4" transform="translate(7.67 3.267)" fill="#eac3b2"/>
          <g id="Group_738" data-name="Group 738" transform="translate(26.411 11.247)" opacity="0.43" style="mix-blend-mode: multiply;isolation: isolate">
            <g id="Group_737" data-name="Group 737">
              <g id="Group_736" data-name="Group 736" clip-path="url(#clip-path-3)">
                <path id="Path_239" data-name="Path 239" d="M24.9,33.4C24.9,20.754,31.877,10.3,41,8.34a14.644,14.644,0,0,0-3.081-.358C27.327,7.982,18.742,19.36,18.742,33.4S27.327,58.81,37.919,58.81A14.552,14.552,0,0,0,41,58.452C31.877,56.495,24.9,46.038,24.9,33.4" transform="translate(-18.742 -7.981)" fill="#eac3b2"/>
              </g>
            </g>
          </g>
          <path id="Path_240" data-name="Path 240" d="M64.081,77.807l-.676-.853a1.4,1.4,0,0,1,.225-1.966l22.063-17.51a1.4,1.4,0,0,1,1.966.225l.676.853a1.4,1.4,0,0,1-.225,1.966L66.046,78.034a1.4,1.4,0,0,1-1.966-.227" transform="translate(25.822 23.398)" fill="#807066"/>
          <path id="Path_241" data-name="Path 241" d="M15.73,39.813S26.267,53.071,35.185,49.5c11.11-4.445,22.982,54.962,22.639,83.117l.01,7.231s-33.624,9.6-52.147,0c0,0-3.773-36.358-2.4-56.939S9.253,37.34,15.73,39.813" transform="translate(1.221 16.223)" fill="#fe4101"/>
          <g id="Group_741" data-name="Group 741" transform="translate(17.066 90.66)" style="mix-blend-mode: multiply;isolation: isolate">
            <g id="Group_740" data-name="Group 740">
              <g id="Group_739" data-name="Group 739" clip-path="url(#clip-path-4)">
                <path id="Path_242" data-name="Path 242" d="M37.532,81.778S11.525,59.6,12.121,65.257c4.924,46.689,36.78,65.765,36.78,65.765l5.2-1.274-.186-15.117Z" transform="translate(-12.111 -64.333)" fill="#db3537"/>
              </g>
            </g>
          </g>
          <path id="Path_243" data-name="Path 243" d="M59.587,84.267S66.776,77.1,66.9,72.806s1.891-8.062,7.835-7.15c7.01,1.077,16.8-9.794,13.617-2.607-3.382,7.641-7.957,6.726-19.305,27.648-3.341,6.158-9.457-6.429-9.457-6.429" transform="translate(24.384 24.789)" fill="#eac3b2"/>
          <path id="Path_244" data-name="Path 244" d="M24.284,49.956A14.15,14.15,0,0,1,34.42,55.33a128.679,128.679,0,0,1,8.822,12.383A143.547,143.547,0,0,1,54.222,88.84c9.629,23.062,14.862,45.1-2.968,35.886S23.965,99.881,15.578,82.084c-7.166-15.2-3.9-32.782,8.706-32.128" transform="translate(4.844 20.437)" fill="#fe4101"/>
          <path id="Path_245" data-name="Path 245" d="M38.4,98.936c6.6-8.771,6.974-2.287,32.363-24.786.834-.738,1.577-1.594,2.369-2.414l13.788,6.4S69.611,115.6,51.163,117.6,34.641,103.931,38.4,98.936" transform="translate(14.698 29.357)" fill="#fe4101"/>
          <path id="Path_246" data-name="Path 246" d="M42.366,28.226s.572-3.36,10.688,2.538S73.57,28.992,70.823,22.3c-1.942-4.729-7.885-4.288-6.171-8.746,1.649-4.288-3.2-10.348-9.433-10.8s-9.362,5.6-11.226,1.029-12.331-5.489-13.958,0-3.663,6.243-9.276,7.466a8.216,8.216,0,0,0-6.884,9c.355,3.2,1.27,7.775-3.761,9.6S4.475,41.282,9.581,43.113,11.2,45.59,6.169,49.4C.509,53.688,5.826,70.374,17.816,63.087c10.323-6.274-1.3-14.845,7-16.316,7.174-1.273,7.463-3.909,7.025-10.11-.3-4.2,5.024,1.444,10.526-8.436" transform="translate(1.595 0)" fill="#513216"/>
          <g id="Group_744" data-name="Group 744" transform="translate(5.496 0.009)" opacity="0.33" style="mix-blend-mode: multiply;isolation: isolate">
            <g id="Group_743" data-name="Group 743">
              <g id="Group_742" data-name="Group 742" clip-path="url(#clip-path-5)">
                <path id="Path_247" data-name="Path 247" d="M14.771,49.287C19.8,45.478,23.29,44.828,18.183,43s-4.5-11.433.533-13.264,4.116-6.4,3.761-9.6a8.217,8.217,0,0,1,6.883-9c5.614-1.223,7.649-1.979,9.277-7.466A4.711,4.711,0,0,1,40.891.921C37.066-.806,31.218-.214,30.034,3.779c-1.628,5.488-3.663,6.243-9.276,7.466a8.216,8.216,0,0,0-6.884,9c.355,3.2,1.27,7.775-3.761,9.6S4.475,41.28,9.581,43.11,11.2,45.588,6.169,49.4c-5.5,4.17-.626,20.058,10.674,14.228-4.729-3.089-5.851-11.475-2.072-14.339" transform="translate(-3.901 -0.006)" fill="#513216"/>
              </g>
            </g>
          </g>
          <g id="Group_747" data-name="Group 747" transform="translate(53.855 117.389)" style="mix-blend-mode: multiply;isolation: isolate">
            <g id="Group_746" data-name="Group 746">
              <g id="Group_745" data-name="Group 745" clip-path="url(#clip-path-6)">
                <path id="Path_248" data-name="Path 248" d="M38.217,92.629a32.89,32.89,0,0,1,10.027-6.3L46.554,83.3s-5.868,4.249-8.337,9.329" transform="translate(-38.216 -83.3)" fill="#db3537"/>
              </g>
            </g>
          </g>
        </g>
      </g>
    </g>
  </g>
  <g id="Group_622" data-name="Group 622" transform="matrix(0.966, 0.259, -0.259, 0.966, 46.778, 0)">
    <path id="Path_105" data-name="Path 105" d="M16.036,25.055,0,0,8.145,3.693Z" transform="translate(4.606 155.681)" fill="#d6d6d6"/>
    <path id="Path_106" data-name="Path 106" d="M6.8,18.422l-.978-15.1L0,0Z" transform="translate(13.838 162.314)" fill="#e8e8e8"/>
    <path id="Path_107" data-name="Path 107" d="M2,0,0,2.639,14.351,19.293Z" transform="translate(6.291 161.443)" fill="#c2c2c2"/>
    <path id="Path_174" data-name="Path 174" d="M6.144,146.645c-.542-1.517-1.062-3.129-1.543-4.79l.845-.245c.477,1.644.991,3.239,1.527,4.739Zm-2.819-9.654c-.376-1.595-.728-3.249-1.044-4.916l.864-.164c.314,1.655.662,3.3,1.036,4.878ZM1.447,127.12c-.242-1.635-.457-3.312-.639-4.983l.875-.094c.181,1.659.394,3.324.634,4.949Zm-1.09-9.985c-.119-1.659-.209-3.347-.268-5.015l.88-.032c.058,1.66.148,3.336.266,4.984ZM.88,107.1H0c0-1.668.032-3.358.092-5.022l.88.032c-.06,1.653-.091,3.332-.092,4.991m.366-9.975L.368,97.06c.123-1.669.277-3.352.46-5l.875.1c-.183,1.639-.336,3.312-.457,4.969m1.1-9.918-.87-.13c.249-1.66.534-3.327.845-4.956l.864.166c-.309,1.617-.592,3.273-.839,4.92m1.878-9.8-.858-.2c.384-1.636.806-3.274,1.254-4.868l.847.237c-.444,1.583-.862,3.209-1.244,4.832m2.7-9.6-.835-.276c.527-1.6,1.095-3.189,1.688-4.737L8.6,63.1c-.588,1.534-1.151,3.115-1.674,4.7M10.5,58.494l-.805-.355c.678-1.538,1.4-3.069,2.146-4.549l.786.4c-.739,1.467-1.455,2.984-2.126,4.509m4.486-8.9-.764-.438c.835-1.457,1.716-2.9,2.62-4.3l.738.479c-.895,1.38-1.768,2.811-2.594,4.255m234.948-6.132-.013-.88c1.7-.023,3.371-.121,4.956-.29l.093.875c-1.611.171-3.306.27-5.037.295m-5.038-.133c-1.635-.105-3.321-.273-5.01-.5l.117-.871c1.669.223,3.335.389,4.95.493Zm-9.974-1.322c-1.613-.318-3.263-.692-4.905-1.112l.218-.853c1.627.416,3.261.787,4.857,1.1ZM20.408,41.238l-.71-.519c.99-1.352,2.03-2.687,3.09-3.969l.679.56c-1.049,1.269-2.079,2.591-3.059,3.928m204.77-1.714c-1.569-.488-3.172-1.028-4.762-1.6l.3-.827c1.578.573,3.168,1.107,4.724,1.591Zm-9.448-3.419c-1.52-.626-3.07-1.3-4.6-2l.367-.8c1.525.7,3.064,1.37,4.574,1.991ZM26.751,33.571l-.645-.6c1.14-1.221,2.331-2.424,3.539-3.574l.607.638c-1.2,1.138-2.374,2.328-3.5,3.537M206.6,31.924c-1.47-.741-2.966-1.527-4.445-2.335l.423-.772c1.471.805,2.957,1.585,4.418,2.321Zm-8.81-4.813q-.862-.508-1.733-1.035c-.819-.494-1.684-1-2.575-1.512l.438-.763c.9.512,1.768,1.024,2.592,1.523q.866.524,1.724,1.029Zm-163.831-.4-.567-.673c.876-.739,1.782-1.471,2.692-2.176q.621-.481,1.245-.952l.53.7q-.618.467-1.236.944c-.9.7-1.8,1.422-2.664,2.154m155.146-4.55c-1.439-.76-2.937-1.523-4.453-2.266l.389-.79c1.522.748,3.028,1.514,4.475,2.277ZM41.9,20.7l-.5-.725c1.378-.948,2.791-1.876,4.2-2.756l.467.746c-1.4.874-2.8,1.795-4.168,2.736m138.233-2.947c-1.5-.686-3.037-1.367-4.57-2.023l.347-.809c1.54.658,3.084,1.343,4.589,2.033ZM50.358,15.417l-.433-.766c1.454-.821,2.944-1.618,4.431-2.37l.4.785c-1.474.747-2.953,1.538-4.395,2.352M170.95,13.822c-1.54-.613-3.109-1.215-4.666-1.791l.305-.825c1.563.578,3.14,1.183,4.687,1.8ZM59.25,10.915l-.361-.8c1.519-.685,3.075-1.343,4.628-1.958l.324.818c-1.539.611-3.084,1.265-4.591,1.943m102.324-.557C160,9.82,158.4,9.3,156.826,8.8l.263-.84c1.584.5,3.189,1.021,4.771,1.561Zm-9.536-2.983c-1.6-.457-3.226-.895-4.824-1.3l.218-.853c1.605.41,3.236.851,4.847,1.309ZM68.516,7.241l-.287-.831c1.573-.544,3.184-1.059,4.786-1.532l.25.844c-1.59.47-3.187.981-4.749,1.52M142.359,4.9c-1.626-.369-3.27-.717-4.887-1.035L137.641,3c1.626.32,3.278.67,4.911,1.039ZM78.076,4.413l-.212-.854c1.612-.4,3.261-.771,4.9-1.1l.175.862c-1.628.33-3.264.7-4.863,1.095m54.481-1.437c-1.645-.273-3.307-.523-4.938-.742l.118-.873c1.64.222,3.311.472,4.965.747ZM87.846,2.432l-.139-.869c1.638-.261,3.313-.492,4.975-.687l.1.874c-1.651.193-3.313.423-4.938.683m34.815-.786c-1.66-.169-3.333-.313-4.974-.426l.061-.878c1.65.114,3.334.258,5,.429ZM97.748,1.267,97.68.39c1.652-.127,3.339-.225,5.013-.29l.034.88c-1.664.063-3.339.16-4.979.287M112.7.963c-1.6-.054-3.21-.083-4.789-.083h-.2l0-.88h.2c1.59,0,3.211.028,4.819.084Z" transform="translate(0 0)" fill="#c2bebc"/>
    <path id="Path_175" data-name="Path 175" d="M1.1,2.662C.728,1.933.358,1.158,0,.36L.8,0c.352.785.716,1.546,1.081,2.262Z" transform="translate(8.007 150.951)" fill="#c2bebc"/>
  </g>
  <path id="Path_126" data-name="Path 126" d="M116,110.025H54.344a3.508,3.508,0,0,1-3.508-3.508v-.444a3.509,3.509,0,0,1,3.508-3.51H116a3.509,3.509,0,0,1,3.508,3.51v.444A3.508,3.508,0,0,1,116,110.025" transform="translate(-48.749 131.162)" fill="#1d2c5b"/>
  <path id="Path_127" data-name="Path 127" d="M116,121.114H54.344a3.508,3.508,0,0,1-3.508-3.508v-.444a3.509,3.509,0,0,1,3.508-3.51H116a3.509,3.509,0,0,1,3.508,3.51v.444A3.508,3.508,0,0,1,116,121.114" transform="translate(-18.749 137.209)" fill="#1d2c5b"/>
  <g transform="matrix(1, 0, 0, 1, 0, 0)" filter="url(#Rectangle_322)">
    <rect id="Rectangle_322-2" data-name="Rectangle 322" width="500" height="311" rx="20" transform="translate(91.1 48.72)" fill="#fff"/>
  </g>
  <g id="Rectangle_324" data-name="Rectangle 324" transform="translate(165.101 154)" fill="#fff" stroke="#1d2c5b" stroke-width="1">
    <rect width="353" height="30" rx="10" stroke="none"/>
    <rect x="0.5" y="0.5" width="352" height="29" rx="9.5" fill="none"/>
  </g>
  <g id="Rectangle_325" data-name="Rectangle 325" transform="translate(165.101 193.725)" fill="#fff" stroke="#1d2c5b" stroke-width="1">
    <rect width="353" height="30" rx="10" stroke="none"/>
    <rect x="0.5" y="0.5" width="352" height="29" rx="9.5" fill="none"/>
  </g>
  <rect id="Rectangle_326" data-name="Rectangle 326" width="353" height="30" rx="10" transform="translate(165.101 243.725)" fill="#828aa4"/>
  <rect id="Rectangle_199" data-name="Rectangle 199" width="124.978" height="1.513" transform="translate(31.273 358.574)" fill="#1d2c5b"/>
  <path id="Rectangle_327" data-name="Rectangle 327" d="M20,0H480a20,20,0,0,1,20,20V40a0,0,0,0,1,0,0H0a0,0,0,0,1,0,0V20A20,20,0,0,1,20,0Z" transform="translate(91.101 48.725)" fill="#1d2c5b"/>
  <path id="Path_117" data-name="Path 117" d="M366.056,270.873H204.76a2.883,2.883,0,0,1-2.884-2.882v-7.463a2.882,2.882,0,0,1,2.884-2.882h161.3a2.882,2.882,0,0,1,2.884,2.882v7.463a2.883,2.883,0,0,1-2.884,2.882" transform="translate(-25.916 -95.645)" fill="#48577e"/>
</svg>
