<svg id="organization" xmlns="http://www.w3.org/2000/svg" width="16.625" height="19" viewBox="0 0 16.625 19">
  <path id="Icon_metro-organization" data-name="Icon metro-organization" d="M18.749,9.053H6.874A2.376,2.376,0,0,0,4.5,11.428v1.187a2.363,2.363,0,0,0,1.187,2.046v3.892h4.75v2.375h4.75V18.553h4.75V14.661a2.363,2.363,0,0,0,1.188-2.046V11.428A2.376,2.376,0,0,0,18.749,9.053Zm-9.5,8.312H6.874v-4.75H5.686V11.428a1.188,1.188,0,0,1,1.187-1.187H8.39a2.348,2.348,0,0,0-.329,1.187V13.8a2.363,2.363,0,0,0,1.187,2.046Zm5.937-2.375V12.616H14v7.125H11.624V12.616H10.436v2.375A1.188,1.188,0,0,1,9.249,13.8V11.428a1.188,1.188,0,0,1,1.187-1.187h4.75a1.188,1.188,0,0,1,1.187,1.187V13.8a1.187,1.187,0,0,1-1.187,1.187Zm4.75-2.375H18.749v4.75H16.374V15.849A2.363,2.363,0,0,0,17.561,13.8V11.428a2.349,2.349,0,0,0-.329-1.187h1.517a1.188,1.188,0,0,1,1.187,1.187v1.187Zm-9.8-4.8a3.518,3.518,0,0,0,5.355,0,2.372,2.372,0,1,0,.785-3.13,3.553,3.553,0,0,0-6.926,0,2.377,2.377,0,1,0,.785,3.13Zm7.428-2.326a1.187,1.187,0,1,1-1.187,1.187A1.186,1.186,0,0,1,17.561,5.491Zm-4.75-2.375a2.375,2.375,0,1,1-2.375,2.375,2.376,2.376,0,0,1,2.375-2.375Zm-4.75,4.75A1.187,1.187,0,1,1,9.249,6.678,1.187,1.187,0,0,1,8.061,7.866Z" transform="translate(-4.499 -1.928)" fill="#ababab"/>
</svg>
