<svg id="vector_1" xmlns="http://www.w3.org/2000/svg" xmlns:xlink="http://www.w3.org/1999/xlink" width="397.761" height="367.874" viewBox="0 0 397.761 367.874">
  <defs>
    <filter id="Path_108" x="53.243" y="45.774" width="336.684" height="280.056" filterUnits="userSpaceOnUse">
      <feOffset dy="2" input="SourceAlpha"/>
      <feGaussianBlur stdDeviation="13" result="blur"/>
      <feFlood flood-opacity="0.059"/>
      <feComposite operator="in" in2="blur"/>
      <feComposite in="SourceGraphic"/>
    </filter>
    <clipPath id="clip-path">
      <rect id="Rectangle_201" data-name="Rectangle 201" width="107.992" height="72.666" fill="#1d2c5b"/>
    </clipPath>
    <clipPath id="clip-path-2">
      <rect id="Rectangle_202" data-name="Rectangle 202" width="85.085" height="31.216" fill="#1d2c5b"/>
    </clipPath>
    <clipPath id="clip-path-3">
      <rect id="Rectangle_211" data-name="Rectangle 211" width="76.083" height="59.479" fill="#1d2c5b"/>
    </clipPath>
  </defs>
  <g id="Group_622" data-name="Group 622" transform="matrix(0.966, 0.259, -0.259, 0.966, 35.554, 16.986)">
    <path id="Path_105" data-name="Path 105" d="M11.767,18.385,0,0,5.977,2.71Z" transform="translate(3.38 114.237)" fill="#d6d6d6"/>
    <path id="Path_106" data-name="Path 106" d="M4.993,13.518,4.275,2.437,0,0Z" transform="translate(10.154 119.105)" fill="#e8e8e8"/>
    <path id="Path_107" data-name="Path 107" d="M1.47,0,0,1.936,10.531,14.157Z" transform="translate(4.616 118.465)" fill="#c2c2c2"/>
    <path id="Path_174" data-name="Path 174" d="M4.508,107.607c-.4-1.113-.779-2.3-1.132-3.515l.62-.18c.35,1.206.727,2.377,1.12,3.477ZM2.44,100.523c-.276-1.17-.534-2.384-.766-3.607l.634-.121c.23,1.214.486,2.419.761,3.579ZM1.062,93.28c-.178-1.2-.335-2.43-.469-3.657l.642-.069c.133,1.217.289,2.439.465,3.632Zm-.8-7.327c-.087-1.217-.153-2.456-.2-3.68l.646-.024c.043,1.218.108,2.448.2,3.657Zm.384-7.364H0c0-1.224.024-2.464.068-3.685l.646.024C.669,76.139.646,77.371.646,78.589m.268-7.319L.27,71.222c.09-1.225.2-2.459.337-3.671l.642.071c-.134,1.2-.247,2.43-.335,3.647m.809-7.277-.639-.1c.183-1.218.392-2.441.62-3.637l.634.122c-.227,1.187-.435,2.4-.616,3.61M3.1,56.8l-.629-.148c.282-1.2.591-2.4.92-3.572l.621.174c-.326,1.162-.633,2.354-.913,3.546m1.981-7.046-.613-.2c.387-1.172.8-2.34,1.239-3.476l.6.231c-.432,1.126-.845,2.286-1.229,3.447M7.7,42.922l-.591-.26c.5-1.129,1.027-2.252,1.575-3.338l.576.29C8.721,40.691,8.2,41.8,7.7,42.922M11,36.393l-.561-.321c.613-1.069,1.259-2.13,1.923-3.153l.542.352c-.656,1.012-1.3,2.063-1.9,3.122m172.4-4.5-.009-.646c1.251-.017,2.474-.088,3.637-.213l.068.642c-1.182.126-2.426.2-3.7.216m-3.7-.1c-1.2-.077-2.437-.2-3.676-.367l.086-.639c1.225.163,2.447.285,3.632.362Zm-7.319-.97c-1.184-.233-2.394-.508-3.6-.816l.16-.626c1.194.305,2.393.577,3.564.808ZM14.975,30.26l-.521-.381c.726-.992,1.49-1.972,2.267-2.912l.5.411c-.77.931-1.525,1.9-2.245,2.882M165.234,29c-1.152-.358-2.327-.754-3.495-1.177l.22-.607c1.158.42,2.324.813,3.467,1.167ZM158.3,26.494c-1.115-.459-2.252-.954-3.379-1.471l.269-.587c1.119.514,2.248,1.005,3.356,1.461ZM19.63,24.634l-.473-.441c.836-.9,1.71-1.779,2.6-2.623l.445.468c-.878.835-1.742,1.708-2.569,2.6M151.6,23.425c-1.079-.544-2.176-1.12-3.262-1.714l.31-.566c1.079.591,2.17,1.163,3.242,1.7Zm-6.465-3.532q-.632-.372-1.271-.759c-.6-.362-1.236-.736-1.889-1.109l.321-.56c.658.376,1.3.751,1.9,1.117q.636.384,1.265.755ZM24.919,19.6l-.416-.494c.643-.542,1.308-1.079,1.976-1.6q.456-.353.913-.7l.389.516q-.454.342-.907.693c-.661.512-1.318,1.044-1.955,1.58m113.845-3.339c-1.056-.558-2.155-1.117-3.268-1.663l.285-.579c1.117.549,2.222,1.111,3.283,1.671ZM30.749,15.19l-.366-.532c1.011-.7,2.048-1.376,3.082-2.023l.342.547c-1.027.641-2.056,1.317-3.059,2.008m101.435-2.163c-1.1-.5-2.228-1-3.353-1.485l.255-.594c1.13.483,2.263.985,3.368,1.492ZM36.952,11.313l-.317-.562c1.067-.6,2.16-1.187,3.251-1.739l.291.576c-1.082.548-2.167,1.129-3.225,1.726m88.489-1.17c-1.13-.449-2.282-.892-3.424-1.314l.224-.606c1.147.424,2.3.868,3.439,1.32ZM43.477,8.009l-.265-.589c1.114-.5,2.257-.985,3.4-1.437l.238.6c-1.129.448-2.263.928-3.369,1.426M118.562,7.6c-1.155-.395-2.328-.778-3.485-1.14l.193-.616c1.162.364,2.34.749,3.5,1.145Zm-7-2.189c-1.177-.335-2.367-.656-3.54-.956l.16-.626c1.178.3,2.374.624,3.557.96Zm-61.288-.1-.21-.61c1.154-.4,2.337-.777,3.512-1.124l.183.619c-1.167.345-2.339.72-3.485,1.115M104.462,3.6c-1.193-.27-2.4-.526-3.586-.759L101,2.2c1.193.235,2.405.492,3.6.763Zm-47.17-.358-.156-.626c1.183-.293,2.393-.566,3.6-.81l.128.633c-1.194.242-2.4.512-3.569.8M97.269,2.184c-1.207-.2-2.427-.384-3.624-.544L93.732,1c1.2.163,2.429.346,3.643.548Zm-32.809-.4-.1-.638c1.2-.191,2.431-.361,3.651-.5l.075.641c-1.211.142-2.431.31-3.624.5m25.547-.576C88.79,1.084,87.562.978,86.358.9L86.4.251c1.211.083,2.446.189,3.672.315ZM71.726.93l-.05-.644c1.212-.093,2.45-.165,3.679-.213l.025.646c-1.221.046-2.45.118-3.654.21M82.7.706C81.528.666,80.345.646,79.186.646H79.04V0h.148c1.167,0,2.356.021,3.536.061Z" transform="translate(0 0)" fill="#c2bebc"/>
    <path id="Path_175" data-name="Path 175" d="M.808,1.953C.534,1.418.263.85,0,.264L.589,0c.258.576.525,1.134.793,1.66Z" transform="translate(5.875 110.767)" fill="#c2bebc"/>
  </g>
  <path id="Path_85" data-name="Path 85" d="M320.325,322.705H92.927a16.164,16.164,0,0,1-16.146-16.147V135.787a16.163,16.163,0,0,1,16.146-16.146h227.4a16.162,16.162,0,0,1,16.145,16.146V306.558a16.163,16.163,0,0,1-16.145,16.147M92.927,120.648a15.156,15.156,0,0,0-15.139,15.139V306.558A15.156,15.156,0,0,0,92.927,321.7h227.4a15.157,15.157,0,0,0,15.139-15.14V135.787a15.157,15.157,0,0,0-15.139-15.139Z" transform="translate(3.855 -22.788)" fill="#1d2c5b"/>
  <path id="Path_86" data-name="Path 86" d="M341.624,139.887s4.15,1.872,6,2.522,8.639-.081,9.393.5.785,2.784-.306,3.168-9.2,2.385-12.024,2.1-7.8,1.622-8.988,1.374-1.291-6.914-1.04-8.451,6.962-1.216,6.962-1.216" transform="translate(32.857 -20.514)" fill="#484e7d"/>
  <path id="Path_87" data-name="Path 87" d="M340.726,137.482l.953,2.671s-5,1.783-6.961,1.217l-.655-2.723Z" transform="translate(32.802 -20.781)" fill="#eea886"/>
  <path id="Path_88" data-name="Path 88" d="M331.626,142.064s3.913,2.386,5.679,3.267,8.589,1.017,9.273,1.691.474,2.864-.653,3.108-9.4,1.2-12.171.556-7.925.62-9.077.224-.518-7.03-.1-8.524,7.049-.323,7.049-.323" transform="translate(31.672 -20.315)" fill="#5b639e"/>
  <path id="Path_89" data-name="Path 89" d="M331.019,139.524l.585,2.777s-5.162,1.135-7.048.323l-.349-2.788Z" transform="translate(31.693 -20.551)" fill="#eea886"/>
  <path id="Path_90" data-name="Path 90" d="M297.488,94.586s17.841.158,20.03.466c2.371.336,11.655.636,12.775,2.336,11.314,17.172,18.7,45.288,18.7,45.288l-8.942,1.76s-8.649-16.759-12.27-25.465c-3.252-7.816-6.035-9.826-12.865-9.653s-28.672-1.333-41.266-2.893Z" transform="translate(26.005 -25.607)" fill="#292c47"/>
  <path id="Path_91" data-name="Path 91" d="M295.679,58.03s5.294,11.394,4.865,15.626-4.981,15.965-5.3,18.321,1.983,7.018,1.983,7.018L273.384,110.03a65.874,65.874,0,0,1,0-15.011c.96-8.036,1.669-16.671,2.729-21.212,3.616-15.5,13.182-21.918,13.182-21.918Z" transform="translate(25.927 -30.411)" fill="#fe4101"/>
  <path id="Path_92" data-name="Path 92" d="M297.18,94.231s17.842.158,20.03.466c2.372.336,11.865.5,12.775,2.336,6.483,13.093,7.939,48.04,7.939,48.04l-8.34,1.008s-3.549-17.838-5.383-26.184c-.973-4.429-4.665-9.8-9.722-9.5-6.82.4-33.579,7.011-41.136-5.129Z" transform="translate(25.97 -25.647)" fill="#323657"/>
  <path id="Path_93" data-name="Path 93" d="M281.08,68.206c.051-2.206,1.333-11.728,6.7-11.077s4.75,7.1,4.253,11.955c-.521,5.086-3.16,17.554-2.32,18.2s7.211,2.555,8.582,2.829,9.63,2.3,10.309,2.49-.665,3.4-.665,3.4-22.879-.671-26.706-2.484-.157-25.306-.157-25.306" transform="translate(26.662 -29.825)" fill="#eea886"/>
  <path id="Path_94" data-name="Path 94" d="M305.731,89.088a22.05,22.05,0,0,0,2.52.493c.819.066,4.7-1.474,5.905-1.252a88.821,88.821,0,0,1,9.317,4.232c.348.263-.206.779-.206.779l-18.2-.657Z" transform="translate(29.539 -26.314)" fill="#eea886"/>
  <rect id="Rectangle_197" data-name="Rectangle 197" width="2.775" height="30.294" transform="translate(327.681 68.669) rotate(-87.685)" fill="#807066"/>
  <rect id="Rectangle_198" data-name="Rectangle 198" width="30.294" height="2.775" transform="translate(355.348 68.956) rotate(-70.247)" fill="#807066"/>
  <path id="Path_95" data-name="Path 95" d="M307.642,42.163s.572,4.679-.7,4.875c-1.047.162-.677,4.678-.677,5.392s-1.965.465-2.5.714-3.582,4.714-5.113,4.285-7.262-5.333-8.333-7.919.767-11.651,3.374-14.759,12.91-.777,13.945,7.41" transform="translate(27.846 -32.488)" fill="#eea886"/>
  <path id="Path_96" data-name="Path 96" d="M295.972,53.471s-.155.409-.382,1.046c-.168.468-.375,1.06-.591,1.7a24.783,24.783,0,0,0-1.268,4.886c-.09,1.928-6.089-7.785-6.089-7.785a93.153,93.153,0,0,0,3.5-12.693c1.344-6.842,4.826,12.844,4.826,12.844" transform="translate(27.579 -31.841)" fill="#eea886"/>
  <path id="Path_97" data-name="Path 97" d="M307.818,43.26a6.374,6.374,0,0,0,1.107-7.947c-2.651-4.607-11.9-1.965-12.784-2.071s-5.5-1.571-6.393,7.321-.33,7.558-.33,7.558,2.265-3.818,3.884-3.2a22.69,22.69,0,0,0,4.446.911s.053-4.152,2.384-3.83,5.844-.384,7.686,1.259" transform="translate(27.759 -32.583)" fill="#d88a51"/>
  <path id="Path_98" data-name="Path 98" d="M280.553,68.676l12.263.444s1.9-12.761-5.144-12.516-7.119,12.072-7.119,12.072" transform="translate(26.782 -29.881)" fill="#fe4101"/>
  <path id="Path_99" data-name="Path 99" d="M295.921,42.081c.007-.57.234-2.94-2.087-2.4s-.923,5.719-.625,5.9,2.658,1.3,2.712-3.492" transform="translate(28.128 -31.794)" fill="#eea886"/>
  <path id="Path_100" data-name="Path 100" d="M287.643,51.89s10.523,19.016,10.25,16.321c-.214-2.107-4.772-12.285-4.772-12.285Z" transform="translate(27.579 -30.411)" fill="#eea886"/>
  <path id="Path_101" data-name="Path 101" d="M295.254,53.457c-.168.468-.375,1.06-.591,1.7a34.529,34.529,0,0,1-4.027-6.556c.867,1.576,4.618,4.854,4.618,4.854" transform="translate(27.916 -30.781)" fill="#a77860"/>
  <path id="Path_102" data-name="Path 102" d="M297.179,94.231,273.74,108.388l-.4-3.122Z" transform="translate(25.97 -25.647)" fill="#d43f0d"/>
  <rect id="Rectangle_199" data-name="Rectangle 199" width="91.708" height="1.11" transform="translate(31.114 123.648)" fill="#1d2c5b"/>
  <g transform="matrix(1, 0, 0, 1, 0, 0)" filter="url(#Path_108)">
    <path id="Path_108-2" data-name="Path 108" d="M345.9,122.628V293.4a15.643,15.643,0,0,1-15.643,15.643h-227.4A15.643,15.643,0,0,1,87.214,293.4V122.628a15.642,15.642,0,0,1,15.643-15.642h227.4A15.642,15.642,0,0,1,345.9,122.628" transform="translate(5.03 -24.21)" fill="#fff"/>
  </g>
  <path id="Path_109" data-name="Path 109" d="M345.9,122.628v4.423H87.214v-4.423a15.642,15.642,0,0,1,15.643-15.642h227.4A15.642,15.642,0,0,1,345.9,122.628" transform="translate(5.029 -24.212)" fill="#1d2c5b"/>
  <path id="Path_110" data-name="Path 110" d="M187.243,180.438h-73A6.042,6.042,0,0,1,108.2,174.4V155.265a6.041,6.041,0,0,1,6.042-6.042h73a6.042,6.042,0,0,1,6.042,6.042V174.4a6.043,6.043,0,0,1-6.042,6.042" transform="translate(7.39 -19.46)" fill="#1d2c5b"/>
  <path id="Path_111" data-name="Path 111" d="M187.294,218.252h-73a6.552,6.552,0,0,1-6.545-6.545V192.574a6.552,6.552,0,0,1,6.545-6.544h73a6.552,6.552,0,0,1,6.545,6.544v19.133a6.552,6.552,0,0,1-6.545,6.545m-73-31.215a5.544,5.544,0,0,0-5.538,5.537v19.133a5.544,5.544,0,0,0,5.538,5.538h73a5.544,5.544,0,0,0,5.538-5.538V192.574a5.544,5.544,0,0,0-5.538-5.537Z" transform="translate(7.339 -15.319)" fill="#48577e"/>
  <path id="Path_112" data-name="Path 112" d="M269.613,228.777H203.449a1.573,1.573,0,0,1-1.573-1.573v-1.889a1.573,1.573,0,0,1,1.573-1.573h66.164a1.573,1.573,0,0,1,1.573,1.573V227.2a1.573,1.573,0,0,1-1.573,1.573" transform="translate(17.93 -11.076)" fill="#48577e"/>
  <path id="Path_113" data-name="Path 113" d="M269.613,245.218H203.449a1.572,1.572,0,0,1-1.573-1.571v-1.888a1.572,1.572,0,0,1,1.573-1.574h66.164a1.573,1.573,0,0,1,1.573,1.574v1.888a1.572,1.572,0,0,1-1.573,1.571" transform="translate(17.93 -9.226)" fill="#48577e"/>
  <path id="Path_114" data-name="Path 114" d="M301.319,222.443H210.528a9.114,9.114,0,0,1-9.1-9.1V157.874a9.114,9.114,0,0,1,9.1-9.1h90.791a9.115,9.115,0,0,1,9.1,9.1v55.465a9.115,9.115,0,0,1-9.1,9.1m-90.791-72.666a8.105,8.105,0,0,0-8.1,8.1v55.465a8.106,8.106,0,0,0,8.1,8.1h90.791a8.107,8.107,0,0,0,8.1-8.1V157.874a8.107,8.107,0,0,0-8.1-8.1Z" transform="translate(17.879 -19.511)" fill="#48577e"/>
  <path id="Path_115" data-name="Path 115" d="M288.343,230.708l-5.751-5.014a1.132,1.132,0,1,1,1.488-1.707l4.066,3.544,5.8-6.468a1.133,1.133,0,0,1,1.688,1.512Z" transform="translate(26.967 -11.42)" fill="#48577e"/>
  <path id="Path_116" data-name="Path 116" d="M288.343,248.169l-5.751-5.013a1.133,1.133,0,1,1,1.488-1.709l4.066,3.546,5.8-6.468a1.133,1.133,0,1,1,1.688,1.512Z" transform="translate(26.967 -9.455)" fill="#48577e"/>
  <path id="Path_117" data-name="Path 117" d="M269.613,262.679H203.449a1.573,1.573,0,0,1-1.573-1.572v-1.889a1.572,1.572,0,0,1,1.573-1.572h66.164a1.572,1.572,0,0,1,1.573,1.572v1.889a1.573,1.573,0,0,1-1.573,1.572" transform="translate(17.93 -7.261)" fill="#48577e"/>
  <path id="Path_118" data-name="Path 118" d="M288.343,265.63l-5.751-5.014a1.133,1.133,0,1,1,1.488-1.708l4.066,3.547,5.8-6.47a1.133,1.133,0,0,1,1.688,1.513Z" transform="translate(26.967 -7.491)" fill="#48577e"/>
  <path id="Path_124" data-name="Path 124" d="M132.834,164.286c0-.152,0-.3-.009-.453,0-.052,0-.1,0-.155a9.067,9.067,0,1,0-11.963,9.08h0a9.068,9.068,0,0,0,11.937-7.752q.033-.359.038-.722m-15.864-.2a6.8,6.8,0,0,1,13.189-2.234l0,0a6.786,6.786,0,0,1,.4,1.949h0c.009.151.012.3.01.456a6.786,6.786,0,0,1-8.343,6.53c-.216-.05-.429-.107-.636-.177a6.8,6.8,0,0,1-4.617-6.528" transform="translate(8.121 -18.799)" fill="#fff"/>
  <path id="Path_126" data-name="Path 126" d="M98.653,108.039H53.41a2.574,2.574,0,0,1-2.574-2.574v-.326a2.575,2.575,0,0,1,2.574-2.575H98.653a2.575,2.575,0,0,1,2.574,2.575v.326a2.574,2.574,0,0,1-2.574,2.574" transform="translate(0.936 -24.71)" fill="#1d2c5b"/>
  <path id="Path_127" data-name="Path 127" d="M98.653,119.128H53.41a2.574,2.574,0,0,1-2.574-2.574v-.326a2.575,2.575,0,0,1,2.574-2.575H98.653a2.575,2.575,0,0,1,2.574,2.575v.326a2.574,2.574,0,0,1-2.574,2.574" transform="translate(0.936 -23.462)" fill="#1d2c5b"/>
  <g id="Group_613" data-name="Group 613" transform="translate(274.055 126.626)" opacity="0.78">
    <g id="Group_612" data-name="Group 612">
      <g id="Group_611" data-name="Group 611" clip-path="url(#clip-path)">
        <path id="Path_128" data-name="Path 128" d="M350.03,219.069H259.239a8.6,8.6,0,0,1-8.6-8.6V155a8.6,8.6,0,0,1,8.6-8.6H350.03a8.6,8.6,0,0,1,8.6,8.6v55.464a8.6,8.6,0,0,1-8.6,8.6" transform="translate(-250.639 -146.403)" fill="#1d2c5b"/>
      </g>
    </g>
  </g>
  <path id="Path_129" data-name="Path 129" d="M293.46,184.994H263.667a3.244,3.244,0,0,1-3.245-3.244v-24.3a3.244,3.244,0,0,1,3.245-3.244H293.46a3.244,3.244,0,0,1,3.245,3.244v24.3a3.245,3.245,0,0,1-3.245,3.244" transform="translate(24.517 -18.899)" fill="#fff"/>
  <path id="Path_130" data-name="Path 130" d="M343.284,162.419H300.4a1.9,1.9,0,0,1-1.9-1.9v-4.41a1.9,1.9,0,0,1,1.9-1.9h42.887a1.9,1.9,0,0,1,1.9,1.9v4.41a1.9,1.9,0,0,1-1.9,1.9" transform="translate(28.8 -18.899)" fill="#fff"/>
  <path id="Path_131" data-name="Path 131" d="M343.284,173.967H300.4a1.9,1.9,0,0,1-1.9-1.9v-4.41a1.9,1.9,0,0,1,1.9-1.9h42.887a1.9,1.9,0,0,1,1.9,1.9v4.41a1.9,1.9,0,0,1-1.9,1.9" transform="translate(28.8 -17.6)" fill="#fff"/>
  <path id="Path_132" data-name="Path 132" d="M340.757,203.211H324.216a1.727,1.727,0,0,1-1.728-1.728V200.7a1.728,1.728,0,0,1,1.728-1.728h16.541a1.728,1.728,0,0,1,1.728,1.728v.783a1.727,1.727,0,0,1-1.728,1.728" transform="translate(31.5 -13.863)" fill="#fff"/>
  <path id="Path_133" data-name="Path 133" d="M329.083,229.313s-1.724-3.016,1.009-11.1a8.148,8.148,0,0,1,14.7-2.1c2.908,5.009,1.926,8.119-2.355,13.775s-11.58,2.01-13.358-.575" transform="translate(32.181 -12.359)" fill="#eea886"/>
  <path id="Path_134" data-name="Path 134" d="M348.136,352.658s.453,3.32.51,3.819,5.037-.295,5.037-.295l.4-3.952s-5.329-.041-5.951.427" transform="translate(34.385 3.38)" fill="#eea886"/>
  <path id="Path_135" data-name="Path 135" d="M349.42,355.69a13.724,13.724,0,0,1-3.1,2.873c-1.526.872-3.924,1.218-4.827,2.119-.652.652-2.373,3.458,3.967,3.4s9.4.395,10.074-.68-.982-7.938-.982-7.938a17.469,17.469,0,0,1-5.127.225" transform="translate(33.557 3.744)" fill="#363636"/>
  <path id="Path_136" data-name="Path 136" d="M317.135,352.658s.453,3.32.509,3.819,5.037-.295,5.037-.295l.4-3.952s-5.328-.041-5.951.427" transform="translate(30.897 3.38)" fill="#eea886"/>
  <path id="Path_137" data-name="Path 137" d="M318.715,355.69a13.708,13.708,0,0,1-3.1,2.873c-1.526.872-7.143,1.589-8.046,2.49-.652.653-1.736,3.276,7.185,3.03,6.337-.175,9.4.395,10.075-.68s-.983-7.938-.983-7.938a26.283,26.283,0,0,1-5.126.225" transform="translate(29.773 3.744)" fill="#363636"/>
  <path id="Path_138" data-name="Path 138" d="M347.971,278.308s2.554,7.937,2.218,14.776,1.321,14.324,2,21.468c.755,7.964,3.846,26.822,3.958,31.081s-.481,17.865-.481,17.865l-6.186.15s-5.194-32.965-6.539-36.329-8.018-27.343-8.244-30.033,13.276-18.978,13.276-18.978" transform="translate(32.873 -4.937)" fill="#2f4563"/>
  <path id="Path_139" data-name="Path 139" d="M324.37,277.736s-3.755,20.984-4.2,25.171-.748,20.258-.972,22.872-1.5,34.237-2.69,38.123h6.9s7.081-22.986,7.081-33.861,4.689-23.643,7.717-30.82,9.956-7.345,11.817-20.659c0,0-23.127-5.049-25.647-.825" transform="translate(30.827 -5.191)" fill="#354c70"/>
  <path id="Path_140" data-name="Path 140" d="M331.282,229.765a6,6,0,0,1,0,3.879c-.779,1.616,9.94.646,9.94.646a11.522,11.522,0,0,1,.916-6.085c1.4-2.748-10.856,1.56-10.856,1.56" transform="translate(32.485 -10.677)" fill="#eea886"/>
  <path id="Path_141" data-name="Path 141" d="M349.754,280.121s-3.855,3.961-26.49-.617l.346-1.938,25.731.969Z" transform="translate(31.587 -5.02)" fill="#2b3b57"/>
  <path id="Path_142" data-name="Path 142" d="M333.011,236.261s-3.959.4-5.09.62-8.744-1.362-10.307-1.523-8.221-4.726-8.437-5.264-4.052-10.252-4.268-12.352-3.737-1.017-3.435.432c.565,2.708,1.292,9.281,1.689,11.185.43,2.057,1.58,6.715,2.226,7.289a46.425,46.425,0,0,0,12.514,7.073,49.917,49.917,0,0,1,10.291,4.795h28.934s11.253-16.087,11.5-18.511-7.861-18.532-9.476-20.554-3.953.661-3.953.661,4.842,14.206,5.488,16.225-5.632,10.894-7.355,10.922-6.151-.538-8.116-.62a13.737,13.737,0,0,1-4.04-.942Z" transform="translate(29.133 -12.769)" fill="#eea886"/>
  <path id="Path_143" data-name="Path 143" d="M319.233,244.733a9.34,9.34,0,0,1,3.865,6.394,83.646,83.646,0,0,0,2.262,12.6c.646,2.183-.565,18.018-.728,19.149s22.389,3.818,25.854,1.131c0,0,.969-14.785,1.373-18.987s2.343-14.379,2.989-15.753,8.483-12.366,8.807-13.815c0,0-4.055-6.463-6.963-6.544,0,0-4.619,5.413-6.126,5.655s-10.737-1.448-10.739-1.463-1.008,1.372-6.364-.245c0,0-6.379.721-7.417.853-1.257.16-9.991-1.1-9.991-1.1s-3.5,5.916-2.89,8.9Z" transform="translate(30.443 -10.495)" fill="#fe4101"/>
  <path id="Path_144" data-name="Path 144" d="M305.542,219.583s-.791-3.744.162-4.819c.542-.612,1.845-2.232,1.964-2.471s1.517-1.04,1.517-1.428-1.368-.862-2.559.239-1.935,1.339-2.411,1.22-1.16-4.078-1.22-5.06-.438-3.571-1.052-3.393-.584,1.311-.584,1.311-.714-1.966-1.19-1.578-.417,1.338-.417,1.338-.892-1.1-1.131-.3a2.793,2.793,0,0,0,0,1.519s-.922-.506-.981.743a19.006,19.006,0,0,0,.923,6.22c.654,1.311,3.105,4.736,3.4,6.073s3.583.384,3.583.384" transform="translate(28.703 -13.347)" fill="#eea886"/>
  <path id="Path_145" data-name="Path 145" d="M351.428,213.752s-2.692-4.526-3.607-4.93a15.4,15.4,0,0,1-3.34-1.441c-1.131-.808-2.627-1.481-2.545-1.75s1.414-.161,2.841.457,2.054.32,2.188,0a8.369,8.369,0,0,0-1.192-3.144c-.432-.537-3.5-3.626-2.99-4.084s2.5,1.24,2.828,1.59c0,0-1.589-3.34-.969-3.5s1.778,1.023,1.778,1.023-.135-2.855,2.936,1.777c0,0-.646-1.535.295-1.023s1.859,3.393,2.155,4.848,1.64,6.087,2.787,7.2-3.165,2.977-3.165,2.977" transform="translate(33.687 -14.092)" fill="#eea886"/>
  <path id="Path_146" data-name="Path 146" d="M342.292,229.957a12.258,12.258,0,0,1-4.435-.916c-3.016-1.042-3.242-6.316-3.894-5.69a1.907,1.907,0,0,1-3.091-.36s1.473-1.939.79-2.872a7.234,7.234,0,0,0-1.793-1.615s2.122-10.225,11.776-5.567c11.311,5.459.646,17.021.646,17.021" transform="translate(32.33 -12.429)" fill="#353a3d"/>
  <path id="Path_147" data-name="Path 147" d="M331.278,233.154l.34-1.477a78.613,78.613,0,0,1,9.523.362l.354,1.767s-4.3,1.952-10.217-.651" transform="translate(32.489 -10.185)" fill="#d43f0d"/>
  <path id="Path_148" data-name="Path 148" d="M332.732,221.093c.559-.93,2.628-1.558,2.871,1.077.188,2.043-3.7,4.273-3.735,2.37a5.731,5.731,0,0,1,.863-3.447" transform="translate(32.555 -11.464)" fill="#eea886"/>
  <path id="Path_149" data-name="Path 149" d="M304.945,217.2a6.147,6.147,0,0,0-3.3,1.029,2.231,2.231,0,0,0,.179,1.107,13.712,13.712,0,0,1,3.405-1.068s-.026-.809-.284-1.068" transform="translate(29.153 -11.812)" fill="#e55353"/>
  <path id="Path_150" data-name="Path 150" d="M302.263,217.755a.956.956,0,1,0,1.253-.51.954.954,0,0,0-1.253.51" transform="translate(29.216 -11.815)" fill="#353a3d"/>
  <g id="Group_616" data-name="Group 616" transform="translate(71.245 175.226)" opacity="0.78" style="mix-blend-mode: multiply;isolation: isolate">
    <g id="Group_615" data-name="Group 615">
      <g id="Group_614" data-name="Group 614" clip-path="url(#clip-path-2)">
        <path id="Path_151" data-name="Path 151" d="M147.384,221.3h-73a6.043,6.043,0,0,1-6.042-6.042V196.131a6.044,6.044,0,0,1,6.042-6.043h73a6.044,6.044,0,0,1,6.042,6.043v19.131a6.043,6.043,0,0,1-6.042,6.042" transform="translate(-68.34 -190.088)" fill="#1d2c5b"/>
      </g>
    </g>
  </g>
  <path id="Path_152" data-name="Path 152" d="M9.224,272.789s.336,1.827,1.362,2.1a5.955,5.955,0,0,1,2.129,1.44c.4.38,2.049,1.1,1.573,1.6s-2.78-1.047-3.329-1.276.237,2.31.016,2.887-4.5,1.641-4.838-.165.493-3.956.37-4.262a11.172,11.172,0,0,1-.3-1.3Z" transform="translate(-4.102 -5.558)" fill="#eea886"/>
  <path id="Path_153" data-name="Path 153" d="M11.017,278.458s.666,5.6.4,6-.573.429-.656-.092-.8-5.387-.8-5.387-.324,6.756-.469,7.138c-.086.226-.674.295-.745.022s-.132-6.988-.132-6.988-.314,6.307-.532,6.589a.434.434,0,0,1-.755-.292c-.009-.468-.049-6.337-.049-6.337s-.517,4.575-.843,4.707c-.2.081-.705.165-.535-1.012s.281-3.993.281-3.993Z" transform="translate(-4.124 -4.92)" fill="#eea886"/>
  <path id="Path_154" data-name="Path 154" d="M62.912,212.181a15.351,15.351,0,0,0,1.233-3.085,7.983,7.983,0,0,1,2.72-3.626c.7-.433,5.744-4.05,6.328-4.05s.245,1.122-.26,1.45-4.6,3.521-4.6,3.521,5.1-3.52,5.634-3.423.912.772.34,1.47a.956.956,0,0,1-.049,1.7L71.842,208s1.418-.738.892.4c-.28.606-3.246,2.375-3.721,2.917a32.209,32.209,0,0,1-4.215,2.363Z" transform="translate(2.295 -13.587)" fill="#eea886"/>
  <path id="Path_155" data-name="Path 155" d="M36.2,353.389h1.265s-.422-4.775.75-4.823,4.072,3.886,5.805,4.5,10.627,1.123,10.673-.516-3.417-2.293-4.493-2.761-6.321-5.573-7.257-6.181-2.482-3.7-2.482-3.7H35.685s-.524,2.592-.825,4.687a18.2,18.2,0,0,0-.2,1.961c-.047,1.779,1.544,6.835,1.544,6.835" transform="translate(-0.885 1.994)" fill="#eea886"/>
  <path id="Path_156" data-name="Path 156" d="M16.429,352.642h1.054V348.2c.878.073,3.828,2.866,4.742,3.675s2.165.771,6.01,1.016,4.209-2.057,3.6-2.841-2.575-1.127-3.6-1.615-5.062-5.044-6.139-6.122-1.733-4.162-1.733-4.162l-4.493.391a27.592,27.592,0,0,1-.484,5.191h0l0,.018c-.043.2-.091.4-.145.593-.668,2.462,1.194,8.3,1.194,8.3" transform="translate(-3.086 1.796)" fill="#eea886"/>
  <path id="Path_157" data-name="Path 157" d="M26.555,218.019s-2.194,4.628-1.022,8.412c0,0-6.75-.92-6.951-1.709s.846-7.887.066-10.063,7.908,3.36,7.908,3.36" transform="translate(-2.696 -12.155)" fill="#eea886"/>
  <path id="Path_158" data-name="Path 158" d="M27.656,223.907s3.906,1.678,5.689,2.193,5.444,2.538,4.659,9.091a134.33,134.33,0,0,1-2.943,14.968A58.139,58.139,0,0,0,34.6,263.7a52.267,52.267,0,0,1-20.906-1.514s2.435-5.814,2.5-7.357-5.647-14.714-5.811-16.74-.858-10.958,2.314-12.689,5.619-1.3,6.967-2.077,6.172-.184,8,.58" transform="translate(-3.636 -11.164)" fill="#fe4101"/>
  <path id="Path_159" data-name="Path 159" d="M25.885,235.563s-1.5-7.871,6.13-7.858c6.707.011,13.043-1.26,14.106-1.851s5.164-2.605,7.319-4.822,13.826-11.092,13.826-11.092l3.226,3.263s-12.313,13.371-14.3,14.674S37.541,238.49,35.426,238.784s-8.053,1.908-9.541-3.221" transform="translate(-1.885 -12.629)" fill="#fe4101"/>
  <path id="Path_160" data-name="Path 160" d="M4.323,258.113c-.229,2.771,1.28,21.909,1.28,21.909l5.426.626s-.385-18.9-.69-23.26A21.92,21.92,0,0,1,11.011,252h0c.294-1.356.655-2.779,1.028-4.136,1.026-3.749,2.133-7.005,2.133-7.005s6.075-15.807-1.548-15.167A18.384,18.384,0,0,0,8.592,233.4c-1.2,4.794-2.571,11.976-2.623,14.838s-1.477,7.834-1.645,9.872" transform="translate(-4.3 -10.859)" fill="#fe4101"/>
  <path id="Path_161" data-name="Path 161" d="M32.9,259.781a46.333,46.333,0,0,1,1.906,5.186c.154,1.046,5.644,14.712,6.025,18.71.386,4.043,1.545,14.833,1.957,16.378s-.927,8.446-1.133,9.993-.1,26.781,1.751,39.244c0,0-4.327,1.855-7.623,0,0,0-5.459-19.468-5.15-30.7s1.733-15.966-.009-20.5-11.939-18.128-12.97-19.57-7.484-9.411-1.373-18.044,16.618-.7,16.618-.7" transform="translate(-3.244 -7.395)" fill="#eddad3"/>
  <path id="Path_162" data-name="Path 162" d="M12.345,296.713c.542,3.606-.028,8.344-1.16,21.529s1.982,29.15,1.982,29.15a15.82,15.82,0,0,0,8.421,0c-.1-.927,0-32.138,0-34.919s.8-5.937,1-9.13a65.069,65.069,0,0,1,2.291-10.281c.342-1.227.694-2.46,1.037-3.655.194-.67.382-1.328.566-1.965,1.6-5.562,3.76-27.041,3.76-27.041s-11.955-9.629-17.775-.564-2.832,15.656-2.627,16.789,1.957,16.482,2.5,20.086" transform="translate(-3.783 -7.452)" fill="#eddad3"/>
  <path id="Path_163" data-name="Path 163" d="M35.509,246.778s-1.062,17.065,2.115,26.668c0,0-12.624,2.1-28.728-3.322,0,0,4.429-11.471,4.276-13.263S8.359,234.18,10.6,229.506s24.119,1.958,24.914,17.272" transform="translate(-3.783 -10.593)" fill="#fe4101"/>
  <path id="Path_164" data-name="Path 164" d="M24.408,200.527c2.886-.116,10.255,1,8.882,12.107s-5.382,10.144-9.355,8.669-8.175-10.455-8.008-12.767.246-7.676,8.481-8.009" transform="translate(-2.992 -13.689)" fill="#eea886"/>
  <path id="Path_165" data-name="Path 165" d="M33.321,207.609s-3.523,3.879-6.836,4.628c0,0-2.819,4.282-7.256,5.1,0,0-8.642-9.552-.35-15.664s14.741,2.528,14.443,5.932" transform="translate(-3.064 -13.798)" fill="#353a3d"/>
  <path id="Path_166" data-name="Path 166" d="M26.29,209.737a1.4,1.4,0,0,0-2.469-.643c-1.143,1.312.524,4.685,1.243,4.737s1.47-1.753,1.226-4.094" transform="translate(-2.147 -12.787)" fill="#eea886"/>
  <path id="Path_167" data-name="Path 167" d="M16.451,275.179c.092.206,6.049,13.427,7.582,15.72.342-1.227.693-2.46,1.037-3.654h0s-8.419-11.774-8.619-12.065" transform="translate(-2.933 -5.289)" fill="#c9b9b3"/>
  <path id="Path_168" data-name="Path 168" d="M10.106,237.154a96.128,96.128,0,0,0,.267,13.553c.293-1.356.655-2.779,1.028-4.136-.03-.192-1.185-8.091-1.295-9.416" transform="translate(-3.661 -9.567)" fill="#d43f0d"/>
  <path id="Path_169" data-name="Path 169" d="M22.728,199.9s-10.043-.23-8.534,17.026c1.16,13.263-3.717,19.814-3.03,21.748s3.043,5.163,8.315,2.25,1.8-18.114,4.634-24.03,9.05-8.655,9.05-8.655-1.091-10.072-10.434-8.338" transform="translate(-3.535 -13.781)" fill="#353a3d"/>
  <path id="Path_170" data-name="Path 170" d="M34.087,231.289s2.293,8.189,2.838,10.125c.709,2.513-2.58,7.244-5.492,5.792s2.654-15.917,2.654-15.917" transform="translate(-1.342 -10.227)" fill="#fe4101"/>
  <path id="Path_171" data-name="Path 171" d="M16.429,352.163h1.054v-4.446c.878.073,3.828,2.866,4.742,3.675s2.165.771,6.01,1.016,4.209-2.057,3.6-2.841-2.575-1.127-3.6-1.615c-4.113.219-9.133-5.564-11.542-5.551-1.28.007-1.268.715-1.307.849h0l0,.018c-.043.2-.091.4-.145.593-.668,2.462,1.194,8.3,1.194,8.3" transform="translate(-3.086 2.274)" fill="#dbcac3"/>
  <path id="Path_172" data-name="Path 172" d="M36.2,352.929h1.265s-.422-4.775.75-4.823,4.072,3.886,5.805,4.5,10.627,1.123,10.673-.516-3.417-2.293-4.493-2.761c-3.669-.009-9.635-4.047-11.487-4.865a6.669,6.669,0,0,0-3.853-.327,18.2,18.2,0,0,0-.2,1.961c-.047,1.779,1.544,6.835,1.544,6.835" transform="translate(-0.885 2.453)" fill="#dbcac3"/>
  <rect id="Rectangle_203" data-name="Rectangle 203" width="7.743" height="28.128" transform="translate(109.589 228.242)" fill="#1d2c5b"/>
  <rect id="Rectangle_204" data-name="Rectangle 204" width="7.743" height="30.966" transform="translate(120.608 225.404)" fill="#1d2c5b"/>
  <rect id="Rectangle_205" data-name="Rectangle 205" width="7.743" height="25.073" transform="translate(131.774 231.297)" fill="#1d2c5b"/>
  <rect id="Rectangle_206" data-name="Rectangle 206" width="7.743" height="36.693" transform="translate(142.941 219.677)" fill="#1d2c5b"/>
  <rect id="Rectangle_207" data-name="Rectangle 207" width="7.743" height="33.038" transform="translate(154.657 223.332)" fill="#1d2c5b"/>
  <rect id="Rectangle_208" data-name="Rectangle 208" width="7.743" height="28.128" transform="translate(166.532 228.242)" fill="#1d2c5b"/>
  <rect id="Rectangle_209" data-name="Rectangle 209" width="7.743" height="30.966" transform="translate(177.55 225.404)" fill="#1d2c5b"/>
  <rect id="Rectangle_210" data-name="Rectangle 210" width="7.743" height="25.073" transform="translate(188.718 231.297)" fill="#1d2c5b"/>
  <path id="Path_176" data-name="Path 176" d="M93.917,204.111c0-.043,0-.088,0-.131a9.067,9.067,0,1,0-11.963,9.081,9.075,9.075,0,0,0,10.078-3.039,9.009,9.009,0,0,0,1.856-4.675c.024-.25.038-.505.041-.76,0-.16,0-.319-.009-.476m-15.855.271a6.8,6.8,0,0,1,13.189-2.234l0,0a6.793,6.793,0,0,1,.4,1.949h0c.009.151.012.3.01.456a6.852,6.852,0,0,1-1.423,4.074,6.637,6.637,0,0,1-.593.668,6.778,6.778,0,0,1-4.869,1.968,6.7,6.7,0,0,1-1.46-.18c-.216-.05-.427-.106-.634-.176a6.8,6.8,0,0,1-4.617-6.528" transform="translate(3.744 -14.264)" fill="#fff"/>
  <g id="Group_619" data-name="Group 619" transform="translate(229.496 264.019)" opacity="0.74">
    <g id="Group_618" data-name="Group 618">
      <g id="Group_617" data-name="Group 617" clip-path="url(#clip-path-3)">
        <path id="Path_177" data-name="Path 177" d="M278.936,329.381H218.318a7.733,7.733,0,0,1-7.732-7.732V277.634a7.733,7.733,0,0,1,7.732-7.732h60.618a7.733,7.733,0,0,1,7.732,7.732v44.015a7.733,7.733,0,0,1-7.732,7.732" transform="translate(-210.586 -269.902)" fill="#1d2c5b"/>
      </g>
    </g>
  </g>
  <path id="Path_178" data-name="Path 178" d="M273.866,321.588H246.713a4.727,4.727,0,0,1-4.728-4.727V280.1a4.727,4.727,0,0,1,4.728-4.728h27.153a4.727,4.727,0,0,1,4.728,4.728v36.763a4.727,4.727,0,0,1-4.728,4.727" transform="translate(22.442 -5.267)" fill="#1d2c5b"/>
  <path id="Path_179" data-name="Path 179" d="M234.429,281.958h-13.9a2.9,2.9,0,0,1-2.9-2.9v-.793a2.9,2.9,0,0,1,2.9-2.9h13.9a2.9,2.9,0,0,1,2.9,2.9v.793a2.9,2.9,0,0,1-2.9,2.9" transform="translate(19.702 -5.267)" fill="#1d2c5b"/>
  <path id="Path_180" data-name="Path 180" d="M234.429,293.015h-13.9a2.9,2.9,0,0,1-2.9-2.9v-.793a2.9,2.9,0,0,1,2.9-2.9h13.9a2.9,2.9,0,0,1,2.9,2.9v.793a2.9,2.9,0,0,1-2.9,2.9" transform="translate(19.702 -4.023)" fill="#1d2c5b"/>
</svg>
