<svg xmlns="http://www.w3.org/2000/svg" xmlns:xlink="http://www.w3.org/1999/xlink" width="594.75" height="571.684" viewBox="0 0 594.75 571.684">
  <defs>
    <filter id="Rectangle_329" x="149" y="233" width="230" height="105" filterUnits="userSpaceOnUse">
      <feOffset dy="2" input="SourceAlpha"/>
      <feGaussianBlur stdDeviation="10" result="blur"/>
      <feFlood flood-opacity="0.078"/>
      <feComposite operator="in" in2="blur"/>
      <feComposite in="SourceGraphic"/>
    </filter>
    <filter id="Rectangle_329-2" x="149" y="288" width="230" height="105" filterUnits="userSpaceOnUse">
      <feOffset dy="2" input="SourceAlpha"/>
      <feGaussianBlur stdDeviation="10" result="blur-2"/>
      <feFlood flood-opacity="0.078"/>
      <feComposite operator="in" in2="blur-2"/>
      <feComposite in="SourceGraphic"/>
    </filter>
    <linearGradient id="linear-gradient" x1="0.423" y1="0.126" x2="0.5" y2="0.696" gradientUnits="objectBoundingBox">
      <stop offset="0" stop-color="#fdc6c6"/>
      <stop offset="1" stop-color="#fab2b2"/>
    </linearGradient>
    <linearGradient id="linear-gradient-2" x1="0.462" y1="-0.282" y2="0.911" xlink:href="#linear-gradient"/>
    <linearGradient id="linear-gradient-3" x1="0.448" y1="-0.282" x2="0.628" y2="1.215" gradientUnits="objectBoundingBox">
      <stop offset="0" stop-color="#ffafaf"/>
      <stop offset="1" stop-color="#f07777"/>
    </linearGradient>
    <linearGradient id="linear-gradient-4" x1="0.317" y1="-0.069" x2="0.551" y2="0.912" xlink:href="#linear-gradient"/>
    <linearGradient id="linear-gradient-5" x1="0.45" y1="-0.282" y2="0.911" xlink:href="#linear-gradient"/>
    <filter id="Rectangle_329-3" x="128" y="185" width="230" height="105" filterUnits="userSpaceOnUse">
      <feOffset dy="2" input="SourceAlpha"/>
      <feGaussianBlur stdDeviation="10" result="blur-3"/>
      <feFlood flood-opacity="0.078"/>
      <feComposite operator="in" in2="blur-3"/>
      <feComposite in="SourceGraphic"/>
    </filter>
    <linearGradient id="linear-gradient-6" x1="0.423" y1="0.212" y2="0.651" xlink:href="#linear-gradient"/>
    <linearGradient id="linear-gradient-7" x1="0.451" y1="1.282" x2="0.62" y2="-0.215" xlink:href="#linear-gradient-3"/>
    <linearGradient id="linear-gradient-8" x1="0.317" y1="1.062" x2="0.551" y2="0.093" xlink:href="#linear-gradient"/>
    <linearGradient id="linear-gradient-9" x1="0.423" y1="1.039" y2="0.217" xlink:href="#linear-gradient"/>
    <linearGradient id="linear-gradient-10" x1="0.285" y1="0.014" x2="0.771" y2="0.908" gradientUnits="objectBoundingBox">
      <stop offset="0" stop-color="#28324f"/>
      <stop offset="1" stop-color="#222735"/>
    </linearGradient>
    <linearGradient id="linear-gradient-11" x1="0.444" y1="1.282" y2="0.089" xlink:href="#linear-gradient"/>
    <linearGradient id="linear-gradient-12" x1="0.423" y1="0.719" y2="0.385" xlink:href="#linear-gradient"/>
    <linearGradient id="linear-gradient-13" x1="0.423" y1="0.915" y2="0.282" xlink:href="#linear-gradient"/>
  </defs>
  <g id="vector_4" transform="translate(0 15)">
    <g id="Reset-Password" transform="translate(-145 -261)">
      <g id="Illustration" transform="translate(145 261)">
        <g id="Shape">
          <ellipse id="Oval" cx="115.531" cy="116.393" rx="115.531" ry="116.393" transform="translate(0 144.214)" fill="#f3f3f3"/>
          <path id="Oval-2" data-name="Oval" d="M484.75,52.185a110,110,0,1,0,110,110A110,110,0,0,0,484.75,52.185Zm.5,47a62.5,62.5,0,1,1-62.5,62.5A62.5,62.5,0,0,1,485.25,99.185Z" fill="#f2f2f2"/>
          <ellipse id="Oval-3" data-name="Oval" cx="37.944" cy="38.041" rx="37.944" ry="38.041" transform="translate(268.439 0)" fill="none" stroke="#f3f3f3" stroke-width="30"/>
          <path id="Path" d="M485.165,52.185c60.522,0,109.585,49.249,109.585,110s-49.063,110-109.585,110a109.351,109.351,0,0,1-90.242-47.58,23.6,23.6,0,0,1,38.568-27.193l.224.321A62.544,62.544,0,1,0,486.2,99.506l-1.033-.008a23.656,23.656,0,0,1,0-47.312Z" fill="#8d95ac"/>
        </g>
        <g id="Mobile-Banking-App" transform="translate(18 138)">
          <g id="Phone3" transform="translate(144.975)">
            <path id="Rectangle" d="M25.137,0h151.09a25.137,25.137,0,0,1,25.137,25.137V392.323a25.137,25.137,0,0,1-25.137,25.137H25.137A25.137,25.137,0,0,1,0,392.323V25.137A25.137,25.137,0,0,1,25.137,0Z" fill="#1d2c5b" fill-rule="evenodd"/>
            <g id="Group-48" transform="translate(7.262 8.412)">
              <path id="Rectangle-2" data-name="Rectangle" d="M18.522,0H43.63a3,3,0,0,1,3,2.913l.074,2.57a5.647,5.647,0,0,0,5.644,5.483h81.483a5.648,5.648,0,0,0,5.645-5.483l.074-2.57a3,3,0,0,1,3-2.913h25.108a18.522,18.522,0,0,1,18.522,18.522v361.1a18.523,18.523,0,0,1-18.522,18.522H18.522A18.522,18.522,0,0,1,0,379.621V18.522A18.522,18.522,0,0,1,18.522,0Z" fill="#fff"/>
            </g>
            <path id="Path-2" data-name="Path" d="M111.6,7.308a3.056,3.056,0,0,1,3.118,2.991,3.051,3.051,0,0,1-3,2.989l-.114,0H76.329A3.057,3.057,0,0,1,73.211,10.3a3.051,3.051,0,0,1,3-2.989l.114,0Z" fill="#fff"/>
            <path id="Path-3" data-name="Path" d="M124.236,6.81a3.115,3.115,0,0,1,.114,6.229l-.114,0h-.164a3.115,3.115,0,0,1-.114-6.229l.114,0Z" fill="#fff"/>
          </g>
          <g id="BoardPieChart" transform="translate(163.229 108.514)">
            <g transform="matrix(1, 0, 0, 1, -181.23, -261.51)" filter="url(#Rectangle_329)">
              <rect id="Rectangle_329-4" data-name="Rectangle 329" width="170" height="45" rx="6" transform="translate(179 261)" fill="#fff"/>
            </g>
            <path id="Rectangle_330" data-name="Rectangle 330" d="M6,0H8A0,0,0,0,1,8,0V45a0,0,0,0,1,0,0H6a6,6,0,0,1-6-6V6A6,6,0,0,1,6,0Z" transform="translate(-2.229 -0.514)" fill="#fff9aa"/>
            <rect id="Rectangle_331" data-name="Rectangle 331" width="140" height="10" rx="5" transform="translate(13.771 6.486)" fill="#455a88"/>
            <rect id="Rectangle_332" data-name="Rectangle 332" width="87" height="10" rx="5" transform="translate(13.771 21.486)" fill="#455a88"/>
          </g>
          <rect id="Rectangle_333" data-name="Rectangle 333" width="170" height="45" rx="6" transform="translate(161 53)" fill="#f6f6f6"/>
          <g id="BoardPieChart-2" data-name="BoardPieChart" transform="translate(163.229 163.514)">
            <g transform="matrix(1, 0, 0, 1, -181.23, -316.51)" filter="url(#Rectangle_329-2)">
              <rect id="Rectangle_329-5" data-name="Rectangle 329" width="170" height="45" rx="6" transform="translate(179 316)" fill="#fff"/>
            </g>
            <path id="Rectangle_330-2" data-name="Rectangle 330" d="M6,0H8A0,0,0,0,1,8,0V45a0,0,0,0,1,0,0H6a6,6,0,0,1-6-6V6A6,6,0,0,1,6,0Z" transform="translate(-2.229 -0.514)" fill="#ffcfaa"/>
            <rect id="Rectangle_331-2" data-name="Rectangle 331" width="140" height="10" rx="5" transform="translate(13.771 6.486)" fill="#455a88"/>
            <rect id="Rectangle_332-2" data-name="Rectangle 332" width="87" height="10" rx="5" transform="translate(13.771 21.486)" fill="#455a88"/>
          </g>
          <g id="Men1.1" transform="translate(0 30.649)">
            <g id="LLeg" transform="translate(66.423 149.24)">
              <path id="Path-4" data-name="Path" d="M52.059,209.111s-.154,9.857,5.9,13.358,15.431,10.007,15.431,10.007l-35.675,1.209,1.017-24.663Z" fill-rule="evenodd" fill="url(#linear-gradient)"/>
              <path id="Path-5" data-name="Path" d="M37.338,221.046c2.759.285,2.156,4.275,7.162,4.081,3.647-.142,9.335-6.868,14.014-4.377,7.142,3.8,15.516,8.931,17.57,10.152s2.865,5.827-3.2,6.392c-5.8.541-13.635.481-15.6.123s-5.6-2.86-8.53-2.46-3.261,1.41-4.9,1.857-6.576.544-7.087-.835C36.181,234.4,35.592,220.867,37.338,221.046Z" fill="#482b61" fill-rule="evenodd"/>
              <path id="Path-6" data-name="Path" d="M34.573,0S48.182,106.815,49.32,116.917s7.385,81.965,6.53,91.55c-.871,9.762-19.133,9.815-21.583,2.45-3.353-10.082-11.1-60.465-12.387-70.987s-.832-22.736-5.984-33.51C12.207,98.707,0,2.739,0,2.739Z" fill="#2f2b57" fill-rule="evenodd"/>
              <path id="Path-7" data-name="Path" d="M26.574,123.435l.048.48q.779,8.37,1.306,55.445l-.783-4.687c-2.456-14.864-4.638-29.588-5.266-34.743-1.255-10.3-.85-22.228-5.669-32.835l-.315-.675c-1.624-3.394-4.9-23.883-8.053-45.762l.991,2.653Q24.642,105.824,26.574,123.435Z" fill="rgba(255,255,255,0.19)" fill-rule="evenodd" opacity="0.591"/>
              <line id="Path-10" x1="1.707" y2="2.553" transform="translate(59.445 222.465)" fill="none" stroke="#fff" stroke-linecap="round" stroke-width="1"/>
              <line id="Path-10-2" data-name="Path-10" x1="1.707" y2="2.554" transform="translate(62.425 223.463)" fill="none" stroke="#fff" stroke-linecap="round" stroke-width="1"/>
            </g>
            <g id="RLeg" transform="translate(29.168 151.854)">
              <path id="Path-8" data-name="Path" d="M6.418,208.758,3.226,230.314l15.431-.078-.505-21.879Z" fill-rule="evenodd" fill="url(#linear-gradient-2)"/>
              <path id="Path-9" data-name="Path" d="M.382,233.8c-.052-1.258,1.119-9.415,2.843-12.645,1.25-2.343,4.023-2.892,8.08-2.908,5.233-.02,9.607.771,9.6,2.908A44.8,44.8,0,0,0,22.658,233.3c.327,1.686-4.353,2.944-10.746,2.88C6.679,236.127.463,235.763.382,233.8Z" fill="#482b61" fill-rule="evenodd"/>
              <path id="Path-10-3" data-name="Path" d="M54.336.893S47.26,48.566,42.978,78.73c-4.209,29.64-16.672,118.052-17.96,127.307-1.182,8.5-22.764,8.5-22.537-1.794s-1.771-74.411,2.248-83.9.52-20.543.666-29.765S11.32,1.509,11.32,1.509Z" fill="#3a3669" fill-rule="evenodd"/>
              <path id="Path-11" data-name="Path" d="M15.629,62.713l-.338,1.227c-4.1,14.72-5.511,16.046-4.35,39.524l.012.477q.061,8.86-8.427,91.7L2.5,192.206c-.2-22.529-1.028-63.264,2.126-71.613l.1-.255c4.018-9.494.52-20.543.666-29.765S11.32,1.509,11.32,1.509L18.7,1.4l.076,3.658q.8,42.843-3.149,57.653Z" fill="rgba(255,255,255,0.19)" fill-rule="evenodd" opacity="0.462"/>
              <line id="Path-9-2" data-name="Path-9" x2="5.649" transform="translate(9.436 223.03)" fill="none" stroke="#fff" stroke-linecap="round" stroke-width="1"/>
              <line id="Path-9-3" data-name="Path-9" x2="5.649" transform="translate(9.436 226.025)" fill="none" stroke="#fff" stroke-linecap="round" stroke-width="1"/>
            </g>
            <g id="Head" transform="translate(52.241)">
              <path id="Path-12" data-name="Path" d="M4.794,56.429S10.705,55.035,10.91,45.3s.061-13.057.061-13.057l14.014-.236s.142,10.849.144,14.773c.005,10.54,7.312,9.65,7.312,9.65s-1.519,8.546-13.317,9.213C9.913,66.163,4.794,56.429,4.794,56.429Z" fill-rule="evenodd" fill="url(#linear-gradient-3)"/>
              <g id="Head1" transform="translate(0.583)">
                <path id="Path-13" data-name="Path" d="M9.1,27.322c-5.808-.226-4.861,8.32,1.173,8.309,0,0,6.484,13.1,16.665,13.139,4.9.016,6.505-4.374,7.975-7.456A30.894,30.894,0,0,0,37.554,30.8c.1-3.01.109-12.9.109-12.9L8.876,17.888Z" fill-rule="evenodd" fill="url(#linear-gradient-4)"/>
                <path id="Path-14" data-name="Path" d="M26.53,42.666a3.062,3.062,0,0,0,2.694-.283" transform="translate(4.608 -2.68) rotate(6)" fill="none" stroke="#f49494" stroke-linecap="round" stroke-width="1" fill-rule="evenodd"/>
                <path id="Path-8-2" data-name="Path-8" d="M9.682,32.343c.367-1.322.206-2.477-1.1-3" transform="translate(-6.702 2.864) rotate(-13)" fill="none" stroke="#de6767" stroke-linecap="round" stroke-width="1" fill-rule="evenodd"/>
                <path id="Path-15" data-name="Path" d="M9.1,27.322s2.671,3.1,3.659,3.184-.138-8.385,1.317-9.928c3.2-3.391,11.548,2.371,20.331.964q3.254-.522,3.2,5.038c8.21-7.525,11.187-13.461,1.376-15.939C38.9,4.271,35.257,2.673,28.208,5.627c-.942-8.6-13.12-7.3-18.664,3.64C5.532,5.344-.108,8.511,2.286,14.415c-4.321,0-2.069,11.608,3.023,15.6A3.6,3.6,0,0,1,9.1,27.322Z" fill="#422851" fill-rule="evenodd"/>
                <path id="Path-16" data-name="Path" d="M24.764,38.962a5.2,5.2,0,0,0,5.9,2.084" transform="matrix(0.966, -0.259, 0.259, 0.966, -9.442, 8.54)" fill="none" stroke="#de6767" stroke-linecap="round" stroke-width="1" fill-rule="evenodd"/>
              </g>
            </g>
            <g id="LArm" transform="translate(85.166 62.327)">
              <g id="Group-3" transform="translate(75.042 1.688) rotate(4)">
                <path id="Path-17" data-name="Path" d="M0,23.728S1.014,14.4,2.982,11.012s2.228-8.855,4.312-8.8.617,8.864.617,8.864S17.056,3.159,21.261.357C25.1-2.2,23.728,9.73,23.209,11.275c-1.237,3.677-17.5,18.365-17.5,18.365S.433,24.522,0,23.728Z" fill-rule="evenodd" fill="url(#linear-gradient-5)"/>
                <path id="Path-18" data-name="Path" d="M7.91,11.075q-.506,3.013-.15,2.988t6.366-8.212Z" fill="#f28585" fill-rule="evenodd"/>
              </g>
              <g id="BoardPieChart-3" data-name="BoardPieChart" transform="translate(57.063 -32.462)">
                <g transform="matrix(1, 0, 0, 1, -160.23, -213.51)" filter="url(#Rectangle_329-3)">
                  <rect id="Rectangle_329-6" data-name="Rectangle 329" width="170" height="45" rx="6" transform="translate(158 213)" fill="#fff"/>
                </g>
                <path id="Rectangle_330-3" data-name="Rectangle 330" d="M6,0H8A0,0,0,0,1,8,0V45a0,0,0,0,1,0,0H6a6,6,0,0,1-6-6V6A6,6,0,0,1,6,0Z" transform="translate(-2.229 -0.514)" fill="#86e5f0"/>
                <rect id="Rectangle_331-3" data-name="Rectangle 331" width="140" height="10" rx="5" transform="translate(13.771 6.486)" fill="#455a88"/>
                <rect id="Rectangle_332-3" data-name="Rectangle 332" width="87" height="10" rx="5" transform="translate(13.771 21.486)" fill="#455a88"/>
              </g>
              <path id="Path-19" data-name="Path" d="M17.528,4.679C22.259,14.939,39.955,41.45,39.955,41.45s29-18.906,32.688-18.945,8.7,4.857,8.385,8.236S48.963,63.757,38.78,63.507C22.947,63.119,3.092,21.946,1.053,16.443-4.407,1.7,12.913-5.329,17.528,4.679Z" fill="#ff5c5d" fill-rule="evenodd"/>
              <path id="Path-5-2" data-name="Path-5" d="M39.85,41.431Q43.2,46.336,43.8,46.014t-1.316-6Z" fill="rgba(0,0,0,0.16)" fill-rule="evenodd"/>
            </g>
            <g id="Body" transform="translate(32.508 55.668)">
              <path id="Path-20" data-name="Path" d="M.149,12.98C-1.337,20.1,8.838,56.008,6.039,72.805,3.825,86.09,1.711,104.381,7.449,108.443c5.842,4.134,56.13,7.417,63.3-4.062,5.687-9.106,1.031-29.3,0-38.514C68.69,47.487,71.8,15.726,68.307,9.23,66.142,5.2,51.384,0,50.83.164S48.972,6.035,39.641,6.035,26.188.164,25.687,0,1.494,6.535.149,12.98Z" fill="#ea5455" fill-rule="evenodd"/>
              <path id="Path-21" data-name="Path" d="M25.664,0l.023,0c.5.161,4.622,6.032,13.954,6.032S50.276.325,50.83.164a27.893,27.893,0,0,1,4.891,1.613l-.012.121C49.039,13.1,30.7,14.479,20.892,1.665l-.222-.3,1.094-.339A37.743,37.743,0,0,1,25.589.006Z" fill="#ff9b86" fill-rule="evenodd"/>
              <path id="Path-22" data-name="Path" d="M.181,17.928,1,18.042q13.083,1.871,15.347,5.922,1.485,2.657-1.381,17.977l-.2,1.071a35.083,35.083,0,0,0,5.6,26.56l.3.427a42.8,42.8,0,0,1,5,10c3.541,9.59-3.991,17.67.779,31.936l-.974-.071c-8.867-.679-16.038-2.01-18.029-3.419C1.711,104.381,3.825,86.09,6.039,72.805,8.42,58.513,1.409,30.388.181,17.928Z" fill="rgba(0,0,0,0.07)" fill-rule="evenodd"/>
            </g>
            <g id="Rarm" transform="translate(0 61.673)">
              <g id="Group-2" transform="translate(36.333 83.285)">
                <path id="Path-23" data-name="Path" d="M6.548,0S9.9,3.949,12.753,4.441,27.568,7.271,28.3,7.617a20.17,20.17,0,0,1,5.066,3.562c1.748,1.727,4.771,5.82,3.758,6.524-1.084.753-4.01-2.939-5.478-3.851a24.966,24.966,0,0,0-3.9-1.805s5.852,7.059,5.48,8.292c-.272.9-5.248,2.437-6.312,2.322s-6.927-4.408-9.562-4.908c-1.828-.346-10.011-2.563-11.738-4.227S0,8.483,0,8.483Z" fill-rule="evenodd" fill="url(#linear-gradient-6)"/>
                <path id="Path-24" data-name="Path" d="M32.091,21.158q-6.124-6.17-6.379-6.065t5.336,6.495Z" fill="#f28585" fill-rule="evenodd"/>
                <path id="Path-25" data-name="Path" d="M29.361,22.172q-4.587-4.2-4.887-4t3.674,4.343Z" fill="#f28585" fill-rule="evenodd"/>
              </g>
              <path id="Path-26" data-name="Path" d="M46.209,1.023c9.456,6.653,3.138,18.748-4.706,29.842C34.175,41.227,23.068,56.837,23.068,56.837s20.885,22.876,22.9,27.108-3.134,12.182-9.539,10.011S-6.422,64.786.99,52.027C12.311,32.538,35.04-6.836,46.209,1.023Z" fill="#ff5c5d" fill-rule="evenodd"/>
              <path id="Path-6-2" data-name="Path-6" d="M23.068,56.837q-4.286-4.534-3.885-5.059t5.231,3.181Z" fill="rgba(0,0,0,0.16)" fill-rule="evenodd"/>
            </g>
          </g>
          <g id="Group-7" transform="translate(348.846 160.054)">
            <path id="Rectangle-3" data-name="Rectangle" d="M42.222,155.619h81.131v82.459a4,4,0,0,1-4,4H22.111a4,4,0,0,1-4-4V179.73A24.111,24.111,0,0,1,42.222,155.619Z" fill="#1d2c5b" fill-rule="evenodd"/>
            <path id="Rectangle-4" data-name="Rectangle" d="M27.619,225.012H104.4v17.066H27.619Z" fill="#1d2c5b" fill-rule="evenodd"/>
            <path id="Path-27" data-name="Path" d="M125.4,241.46l4.844,12.13H106.829l4.057-12.13Z" fill="#1d2c5b" fill-rule="evenodd"/>
            <path id="Path-28" data-name="Path" d="M45.628,241.46l4.843,12.13H27.058l4.057-12.13Z" fill="#4f5b7f" fill-rule="evenodd"/>
            <path id="Path-29" data-name="Path" d="M204.173,241.46l4.843,12.13H185.6l4.057-12.13Z" fill="#1d2c5b" fill-rule="evenodd"/>
            <path id="Rectangle-5" data-name="Rectangle" d="M101.538,66.333l22.412-.486h0v97.927h-46V90.438A24.111,24.111,0,0,1,101.538,66.333Z" fill="#1d2c5b" fill-rule="evenodd"/>
            <path id="Rectangle-6" data-name="Rectangle" d="M111.035,65.847h76.231a21.84,21.84,0,0,1,21.84,21.84v76.335a1.748,1.748,0,0,1-1.747,1.748H86.924V89.958A24.111,24.111,0,0,1,111.035,65.847Z" fill="#4f5b7f" fill-rule="evenodd"/>
            <path id="Rectangle-7" data-name="Rectangle" d="M192.033,65.847A17.073,17.073,0,0,1,209.106,82.92v71.126a1.747,1.747,0,0,1-1.747,1.747h-32.4V82.92A17.074,17.074,0,0,1,192.033,65.847Z" fill="#1d2c5b" fill-rule="evenodd"/>
            <path id="Rectangle-8" data-name="Rectangle" d="M40.219,164.82H118.5v65.754H27.619V177.42A12.6,12.6,0,0,1,40.219,164.82Z" fill="#4f5b7f" fill-rule="evenodd"/>
            <g id="Wom1.4" transform="translate(164.663) rotate(180)">
              <g id="Head-2" data-name="Head" transform="translate(32.719 -0.465)">
                <path id="Path-30" data-name="Path" d="M10.006-56.875C-2.193-54.033-3-37.281,6.278-31.47-3.286-11.41,18.831,8.507,33.981-3.776,43.913.478,52.167-16.121,42.925-29.013,46.8-51.148,38.914-56.869,24.7-57.112Z" fill="#422851" fill-rule="evenodd"/>
                <path id="Path-31" data-name="Path" d="M10.157-52.874s5.934,1.394,6.14,11.122.061,13.049.061,13.049l13.07.236s.142-10.842.145-14.763c.005-10.533,7.341-9.643,7.341-9.643s-1.525-8.54-13.368-9.207C14.3-62.6,10.157-52.874,10.157-52.874Z" fill-rule="evenodd" fill="url(#linear-gradient-7)"/>
                <path id="Path-32" data-name="Path" d="M13.312-23.846c-5.831.226-4.88-8.315,1.177-8.3,0,0,3.518-12.132,15.732-12.132,9.919,0,10.565,14.14,10.655,16.961.1,3.008.109,12.889.109,12.889l-27.9.013Z" fill-rule="evenodd" fill="url(#linear-gradient-8)"/>
                <path id="Path-33" data-name="Path" d="M28.083-35.158a5.237,5.237,0,0,1,5.923-2.089" transform="translate(-9.706 -11.371) rotate(18)" fill="none" stroke="#f77b7b" stroke-linecap="round" stroke-width="1.5" fill-rule="evenodd"/>
                <path id="Path-34" data-name="Path" d="M29.782-39.029a2.764,2.764,0,0,1,2.554.058" transform="translate(1.385 1.06) rotate(-2)" fill="none" stroke="#f49494" stroke-linecap="round" stroke-width="1" fill-rule="evenodd"/>
                <path id="Path-8-3" data-name="Path-8" d="M13.58-28.582c.366,1.321.2,2.475-1.107,3" transform="translate(-5.756 -3.644) rotate(13)" fill="none" stroke="#f77b7b" stroke-linecap="round" stroke-width="1" fill-rule="evenodd"/>
                <path id="Path-35" data-name="Path" d="M12.389-22.791s3.2-4.291,3.843-4.313.874,5.58.874,5.58c3.92.3,13.842,2.277,16.274,6.882,1.7-4.063,4.952-5.868,7.088-5.522l.4-8.633,1,17.355H11.607Z" fill="#422851" fill-rule="evenodd"/>
              </g>
              <g id="LLeg-2" data-name="LLeg" transform="translate(36.894 -131.693)">
                <path id="Path-36" data-name="Path" d="M65.7-93.2s-5.231-10.571-.943-13.9S80.4-116.675,80.4-116.675l-30.053,1.89,6.68,23.054Z" fill-rule="evenodd" fill="url(#linear-gradient-9)"/>
                <path id="Path-37" data-name="Path" d="M53.251-103.258c1.483-.173-.1-5.169,3.11-5.549s4.763,4.354,8.4,2.853,16.9-9.259,17.423-12.43-4.413-4.1-11.19-3.388-8.026,3.128-13.114,2.156-8.888.577-8.72,4.292S51.768-103.085,53.251-103.258Z" fill="#222d4e" fill-rule="evenodd"/>
                <path id="Path-14-2" data-name="Path-14" d="M66.42-106.723l-.66-.991a1,1,0,0,1,.278-1.387l.067-.041,8.966-5.006a1,1,0,0,1,.94-.018l1.392.706h0c-2.186,1.584-3.973,2.775-5.949,3.943C69.937-108.62,68.258-107.695,66.42-106.723Z" fill="rgba(255,255,255,0.54)" fill-rule="evenodd"/>
                <path id="Path-38" data-name="Path" d="M20.43-.032c9.1-.406,59.738-11.613,68.939-13.517s16.979-12.206,9.963-24.135c-7.88-13.391-28.211-51.422-33.147-60-2.443-4.244-14.769-1.864-11.874,5.258,5.4,13.277,7.9,46.63,21.664,58.791,0,0-46.277-8.058-66.266,1.172C-4.82-25.749-1.533.951,20.43-.032Z" fill-rule="evenodd" fill="url(#linear-gradient-10)"/>
              </g>
              <g id="LArm-2" data-name="LArm" transform="translate(64.335 -56.189)">
                <path id="Path-39" data-name="Path" d="M57.456-21.7s-.1,7.407,2.487,11.278,2.693,7.983,4.652,7.848.019-9.692.019-9.692a25.155,25.155,0,0,1,4.273,2.153c1.786,1.2,7.2,7.13,8.469,6.079,2.146-1.79-1.311-11.885-3.194-13.9S61.954-26.6,61.954-26.6Z" fill-rule="evenodd" fill="url(#linear-gradient-11)"/>
                <path id="Path-40" data-name="Path" d="M1.542-17.265C5.775-27.087,13.524-45.13,16.719-50.514c4-6.742,10.317-9.712,17.709-4.71,7.767,5.256,29.155,25.755,29.782,30.4S59.6-14.61,54.86-17.494,30.442-36.767,30.442-36.767,22.5-16.394,16.109-4.593C10.576,5.617-4.9-2.333,1.542-17.265Z" fill="#fe4101" fill-rule="evenodd"/>
                <path id="Path-41" data-name="Path" d="M30.524-36.777q2.133-7.24,2.632-6.821t-.381,8.713Z" fill="rgba(0,0,0,0.3)" fill-rule="evenodd"/>
              </g>
              <g id="PhoneMini4" transform="translate(150.431 -55.981) rotate(162)">
                <g id="Group-3-2" data-name="Group-3">
                  <path id="Rectangle-9" data-name="Rectangle" d="M2.933,1.239H14.885a2.4,2.4,0,0,1,2.4,2.4V32.361a2.4,2.4,0,0,1-2.4,2.4H2.933a2.4,2.4,0,0,1-2.4-2.4V3.639A2.4,2.4,0,0,1,2.933,1.239Z" fill="#c2ab9d"/>
                  <rect id="Rectangle-10" data-name="Rectangle" width="16.752" height="33.522" rx="3" transform="translate(1.795 0.798)" fill="#807066"/>
                  <path id="Rectangle-11" data-name="Rectangle" d="M4.789,2H6.06a.527.527,0,0,1,.519.433l.008.095a.527.527,0,0,0,.527.528H13.24a.528.528,0,0,0,.519-.433l.009-.095A.527.527,0,0,1,14.295,2h1.264a1.79,1.79,0,0,1,1.784,1.644l.006.148h0l-.024,27.26A2.16,2.16,0,0,1,15.169,33.2H5.118a2.152,2.152,0,0,1-2.148-2l-.005-.154s0,0,0,0L2.99,3.794A1.8,1.8,0,0,1,4.789,2Z" fill="#e6f3ff"/>
                </g>
              </g>
              <g id="Body-2" data-name="Body" transform="translate(23.58 -51.613)">
                <path id="Path-42" data-name="Path" d="M0-10.007S10.2-44.178,10.5-50.646,2.159-76.127,3.631-80.932C7.025-92.037,50.348-96.818,52-81.88c.772,6.967-.834,13.219,1.016,21.428s9.259,20.408,5.053,31.876S54.995-6.5,51.987-4.49,41.948-.355,41.948-.355C38.529-5.389,26.986-5.316,21.479,0,21.479,0,7.8-2.656,0-10.007Z" fill="#fe4101" fill-rule="evenodd"/>
                <path id="Path-43" data-name="Path" d="M9.14-15.541c6.8-10.8,6.778-29.591,10.43-32.052s17.863-.046,17.863-2S17.793-69.4,21.017-77.944q2.532-6.708-1.374-12l-.85.185c-7.738,1.75-13.959,4.892-15.162,8.828C2.159-76.127,11.8-57.115,11.5-50.646,11.242-45.155,3.135-19.7.691-12.135Q3.676-6.865,9.14-15.541Z" fill="#fe4101" fill-rule="evenodd"/>
              </g>
              <g id="RArm-2" data-name="RArm" transform="translate(0 -58.763)">
                <path id="Path-44" data-name="Path" d="M44.313-37.031s8.591,7.608,11.221,8.49,18.032,1.944,17.935-.052c-.11-2.137-8.383-2.014-9.24-3.066S63.176-39.9,59.936-40.7s-12.929-2.2-12.929-2.2Z" fill-rule="evenodd" fill="url(#linear-gradient-12)"/>
                <path id="Path-45" data-name="Path" d="M21.458-4.82C12.406-17.6,4.679-37.07,1.713-44.66S1.739-63.7,14.782-61.451C27.8-59.209,48.517-47.029,50.809-43.476s-1.19,10.019-5.575,9.172c-4.062-.783-24.213-9.356-24.213-9.356S33.985-20.669,37.15-14.505C42.438-4.213,29.43,6.441,21.458-4.82Z" fill="#fe4101" fill-rule="evenodd"/>
                <path id="Path-46" data-name="Path" d="M21.226-43.5q-6.79-3.375-5.962-1.96t8.553,6.389Z" fill="rgba(0,0,0,0.3)" fill-rule="evenodd"/>
              </g>
              <g id="RLeg-2" data-name="RLeg" transform="translate(21.937 -127.703)">
                <path id="Path-47" data-name="Path" d="M112.262-97.613s-.158-12.442,10.089-17.093,17.535-4.372,16.607-7.968-27.582-3.45-30.071-.638c-2.122,2.392-6.735,24.67-8,22.967Z" fill-rule="evenodd" fill="url(#linear-gradient-13)"/>
                <path id="Path-48" data-name="Path" d="M104.156-111.54c1.144,2.212,1.216-4.011,5.729-2.639,3.663,1.113,4.915,7.482,7.229,6.087s22.687-12.211,22.8-12.277c2.508-1.351,1.807-5.447-2.429-6.162-4.708-.793-29.1-.259-30.407,1S103.238-113.314,104.156-111.54Z" fill="#222d4e" fill-rule="evenodd"/>
                <path id="Path-14-3" data-name="Path-14" d="M120.127-111.812q-.51,0-.991-.822a1,1,0,0,1,.358-1.368,1.1,1.1,0,0,1,.124-.062l10.732-4.421a.8.8,0,0,1,1.045.435.8.8,0,0,1-.018.651h0C131.178-116.984,120.895-111.812,120.127-111.812Z" fill="rgba(255,255,255,0.54)" fill-rule="evenodd"/>
                <path id="Path-49" data-name="Path" d="M5.881-.176q-13.228-27.95,5.361-37.548c17.977-9.282,71.795,1.7,71.795,1.7a65.381,65.381,0,0,1,0-14.656c2.512-18.045,14.457-48.109,16.984-51.887,3.495-5.224,14.142-1.284,14.342,3.066s-8.026,59.9-9.277,70.5S99.913-16.874,88.437-13.978c-2.636.665-33.814,8.418-36.67,8.192A110.089,110.089,0,0,0,5.881-.176Z" fill="#2c3757" fill-rule="evenodd"/>
                <path id="Path-50" data-name="Path" d="M20.382-34.84c17.8-2,64.917,2.118,66.81.249C89-36.375,88.7-67.418,92.749-85.386l-.616,1.7c-3.812,10.592-7.77,23.475-9.1,33.006a65.381,65.381,0,0,0,0,14.656l-2.17-.42c-10.23-1.923-53.8-9.444-69.625-1.276Q-1.615-31.086.749-15.667,4.82-33.094,20.382-34.84Z" fill="rgba(255,255,255,0.19)" fill-rule="evenodd" opacity="0.462"/>
              </g>
            </g>
            <path id="Rectangle-12" data-name="Rectangle" d="M127.976,155.619h81.13v84.712a1.747,1.747,0,0,1-1.747,1.747H103.864V179.73A24.111,24.111,0,0,1,127.976,155.619Z" fill="#1d2c5b" fill-rule="evenodd"/>
          </g>
        </g>
      </g>
    </g>
  </g>
</svg>
